Upgrade_Try-UltraBlack.ufo
<glyph name="exclam" format="2">
  <advance width="325"/>
  <unicode hex="0021"/>
  <outline>
    <contour>
      <point x="40" y="232" type="line"/>
      <point x="284" y="232" type="line"/>
      <point x="284" y="716" type="line"/>
      <point x="40" y="716" type="line"/>
    </contour>
    <contour>
      <point x="41" y="0" type="line"/>
      <point x="285" y="0" type="line"/>
      <point x="285" y="180" type="line"/>
      <point x="41" y="180" type="line"/>
    </contour>
  </outline>
</glyph>
<glyph name="ampersand" format="2">
  <advance width="808"/>
  <unicode hex="0026"/>
  <outline>
    <contour>
      <point x="259" y="-18" type="curve" smooth="yes"/>
      <point x="358" y="-18"/>
      <point x="426" y="17"/>
      <point x="475" y="84" type="curve"/>
      <point x="615" y="90" type="line"/>
      <point x="701" y="165"/>
      <point x="741" y="250"/>
      <point x="741" y="399" type="curve"/>
      <point x="521" y="399" type="line"/>
      <point x="521" y="319"/>
      <point x="507" y="267"/>
      <point x="472" y="218" type="curve"/>
      <point x="379" y="212" type="line"/>
      <point x="358" y="177"/>
      <point x="337" y="158"/>
      <point x="307" y="158" type="curve" smooth="yes"/>
      <point x="280" y="158"/>
      <point x="264" y="174"/>
      <point x="264" y="202" type="curve" smooth="yes"/>
      <point x="264" y="237"/>
      <point x="292" y="265"/>
      <point x="341" y="282" type="curve"/>
      <point x="267" y="423" type="line"/>
      <point x="112" y="379"/>
      <point x="32" y="295"/>
      <point x="32" y="182" type="curve" smooth="yes"/>
      <point x="32" y="54"/>
      <point x="124" y="-18"/>
    </contour>
    <contour>
      <point x="477" y="0" type="line"/>
      <point x="792" y="0" type="line"/>
      <point x="484" y="371" type="line" smooth="yes"/>
      <point x="464" y="398"/>
      <point x="455" y="411"/>
      <point x="455" y="429" type="curve" smooth="yes"/>
      <point x="455" y="451"/>
      <point x="473" y="466"/>
      <point x="505" y="466" type="curve" smooth="yes"/>
      <point x="538" y="466"/>
      <point x="567" y="459"/>
      <point x="611" y="448" type="curve"/>
      <point x="611" y="652" type="line"/>
      <point x="539" y="670"/>
      <point x="488" y="678"/>
      <point x="426" y="678" type="curve" smooth="yes"/>
      <point x="265" y="678"/>
      <point x="162" y="597"/>
      <point x="162" y="479" type="curve" smooth="yes"/>
      <point x="162" y="421"/>
      <point x="180" y="375"/>
      <point x="228" y="315" type="curve" smooth="yes"/>
    </contour>
  </outline>
</glyph>
<glyph name="parenright" format="2">
  <advance width="477"/>
  <unicode hex="0029"/>
  <outline>
    <contour>
      <point x="32" y="-220" type="curve"/>
      <point x="276" y="-220" type="line"/>
      <point x="372" y="-81"/>
      <point x="421" y="78"/>
      <point x="421" y="248" type="curve" smooth="yes"/>
      <point x="421" y="417"/>
      <point x="372" y="575"/>
      <point x="276" y="716" type="curve"/>
      <point x="32" y="716" type="line"/>
      <point x="133" y="567"/>
      <point x="185" y="409"/>
      <point x="185" y="248" type="curve" smooth="yes"/>
      <point x="185" y="86"/>
      <point x="133" y="-72"/>
    </contour>
  </outline>
</glyph>
<glyph name="zero" format="2">
  <advance width="738"/>
  <unicode hex="0030"/>
  <outline>
    <contour>
      <point x="369" y="-19" type="curve" smooth="yes"/>
      <point x="600" y="-19"/>
      <point x="710" y="115"/>
      <point x="710" y="330" type="curve" smooth="yes"/>
      <point x="710" y="544"/>
      <point x="600" y="678"/>
      <point x="369" y="678" type="curve" smooth="yes"/>
      <point x="139" y="678"/>
      <point x="28" y="544"/>
      <point x="28" y="330" type="curve" smooth="yes"/>
      <point x="28" y="116"/>
      <point x="138" y="-19"/>
    </contour>
    <contour>
      <point x="369" y="209" type="curve" smooth="yes"/>
      <point x="334" y="209"/>
      <point x="320" y="248"/>
      <point x="320" y="330" type="curve" smooth="yes"/>
      <point x="320" y="411"/>
      <point x="334" y="450"/>
      <point x="369" y="450" type="curve" smooth="yes"/>
      <point x="404" y="450"/>
      <point x="418" y="412"/>
      <point x="418" y="330" type="curve" smooth="yes"/>
      <point x="418" y="248"/>
      <point x="404" y="209"/>
    </contour>
  </outline>
</glyph>
<glyph name="two" format="2">
  <advance width="589"/>
  <unicode hex="0032"/>
  <outline>
    <contour>
      <point x="28" y="0" type="line"/>
      <point x="548" y="0" type="line"/>
      <point x="548" y="218" type="line"/>
      <point x="81" y="218" type="line"/>
      <point x="122" y="191" type="line"/>
      <point x="221" y="202" type="line" smooth="yes"/>
      <point x="438" y="226"/>
      <point x="561" y="347"/>
      <point x="561" y="472" type="curve" smooth="yes"/>
      <point x="561" y="597"/>
      <point x="443" y="680"/>
      <point x="265" y="680" type="curve" smooth="yes"/>
      <point x="180" y="680"/>
      <point x="83" y="662"/>
      <point x="28" y="637" type="curve"/>
      <point x="28" y="407" type="line"/>
      <point x="77" y="435"/>
      <point x="149" y="452"/>
      <point x="202" y="452" type="curve" smooth="yes"/>
      <point x="246" y="452"/>
      <point x="277" y="437"/>
      <point x="277" y="407" type="curve" smooth="yes"/>
      <point x="277" y="369"/>
      <point x="234" y="333"/>
      <point x="80" y="280" type="curve" smooth="yes"/>
      <point x="28" y="262" type="line"/>
    </contour>
  </outline>
</glyph>
<glyph name="three" format="2">
  <advance width="604"/>
  <unicode hex="0033"/>
  <outline>
    <contour>
      <point x="276" y="-12" type="curve" smooth="yes"/>
      <point x="462" y="-12"/>
      <point x="576" y="64"/>
      <point x="576" y="178" type="curve" smooth="yes"/>
      <point x="576" y="275"/>
      <point x="503" y="330"/>
      <point x="393" y="344" type="curve"/>
      <point x="397" y="325" type="line"/>
      <point x="500" y="336"/>
      <point x="568" y="393"/>
      <point x="568" y="489" type="curve" smooth="yes"/>
      <point x="568" y="605"/>
      <point x="455" y="678"/>
      <point x="291" y="678" type="curve" smooth="yes"/>
      <point x="200" y="678"/>
      <point x="118" y="667"/>
      <point x="37" y="641" type="curve"/>
      <point x="37" y="423" type="line"/>
      <point x="90" y="447"/>
      <point x="159" y="462"/>
      <point x="225" y="462" type="curve" smooth="yes"/>
      <point x="261" y="462"/>
      <point x="284" y="455"/>
      <point x="284" y="437" type="curve" smooth="yes"/>
      <point x="284" y="420"/>
      <point x="260" y="412"/>
      <point x="223" y="412" type="curve" smooth="yes"/>
      <point x="130" y="412" type="line"/>
      <point x="130" y="260" type="line"/>
      <point x="236" y="260" type="line" smooth="yes"/>
      <point x="270" y="260"/>
      <point x="292" y="251"/>
      <point x="292" y="233" type="curve" smooth="yes"/>
      <point x="292" y="214"/>
      <point x="264" y="206"/>
      <point x="220" y="206" type="curve" smooth="yes"/>
      <point x="151" y="206"/>
      <point x="81" y="225"/>
      <point x="28" y="251" type="curve"/>
      <point x="28" y="27" type="line"/>
      <point x="110" y="0"/>
      <point x="190" y="-12"/>
    </contour>
  </outline>
</glyph>
<glyph name="four" format="2">
  <advance width="670"/>
  <unicode hex="0034"/>
  <outline>
    <contour>
      <point x="314" y="0" type="line"/>
      <point x="586" y="0" type="line"/>
      <point x="586" y="89" type="line"/>
      <point x="640" y="89" type="line"/>
      <point x="640" y="289" type="line"/>
      <point x="586" y="289" type="line"/>
      <point x="586" y="666" type="line"/>
      <point x="221" y="666" type="line"/>
      <point x="30" y="267" type="line"/>
      <point x="30" y="91" type="line"/>
      <point x="314" y="91" type="line"/>
    </contour>
    <contour>
      <point x="314" y="291" type="line"/>
      <point x="225" y="291" type="line"/>
      <point x="314" y="480" type="line"/>
    </contour>
  </outline>
</glyph>
<glyph name="five" format="2">
  <advance width="599"/>
  <unicode hex="0035"/>
  <outline>
    <contour>
      <point x="254" y="-12" type="curve" smooth="yes"/>
      <point x="445" y="-12"/>
      <point x="571" y="76"/>
      <point x="571" y="214" type="curve" smooth="yes"/>
      <point x="571" y="321"/>
      <point x="476" y="392"/>
      <point x="319" y="392" type="curve" smooth="yes"/>
      <point x="258" y="392"/>
      <point x="215" y="381"/>
      <point x="186" y="369" type="curve"/>
      <point x="252" y="346" type="line"/>
      <point x="257" y="430" type="line"/>
      <point x="544" y="430" type="line"/>
      <point x="544" y="666" type="line"/>
      <point x="55" y="666" type="line"/>
      <point x="31" y="244" type="line"/>
      <point x="83" y="256"/>
      <point x="144" y="262"/>
      <point x="209" y="262" type="curve" smooth="yes"/>
      <point x="261" y="262"/>
      <point x="287" y="250"/>
      <point x="287" y="232" type="curve" smooth="yes"/>
      <point x="287" y="215"/>
      <point x="260" y="204"/>
      <point x="206" y="204" type="curve" smooth="yes"/>
      <point x="141" y="204"/>
      <point x="80" y="209"/>
      <point x="28" y="220" type="curve"/>
      <point x="28" y="4" type="line"/>
      <point x="90" y="-6"/>
      <point x="155" y="-12"/>
    </contour>
  </outline>
</glyph>
<glyph name="question" format="2">
  <advance width="540"/>
  <unicode hex="003F"/>
  <outline>
    <contour>
      <point x="120" y="233" type="curve"/>
      <point x="348" y="233" type="line"/>
      <point x="348" y="270"/>
      <point x="365" y="304"/>
      <point x="398" y="333" type="curve" smooth="yes"/>
      <point x="490" y="413"/>
      <point x="516" y="460"/>
      <point x="516" y="533" type="curve" smooth="yes"/>
      <point x="516" y="648"/>
      <point x="422" y="716"/>
      <point x="240" y="716" type="curve" smooth="yes"/>
      <point x="151" y="716"/>
      <point x="97" y="706"/>
      <point x="24" y="680" type="curve"/>
      <point x="24" y="477" type="line"/>
      <point x="79" y="503"/>
      <point x="119" y="513"/>
      <point x="164" y="513" type="curve" smooth="yes"/>
      <point x="202" y="513"/>
      <point x="228" y="498"/>
      <point x="228" y="470" type="curve" smooth="yes"/>
      <point x="228" y="446"/>
      <point x="215" y="427"/>
      <point x="187" y="400" type="curve" smooth="yes"/>
      <point x="138" y="353"/>
      <point x="120" y="305"/>
    </contour>
    <contour>
      <point x="113" y="1" type="line"/>
      <point x="357" y="1" type="line"/>
      <point x="357" y="181" type="line"/>
      <point x="113" y="181" type="line"/>
    </contour>
  </outline>
</glyph>
<glyph name="at" format="2">
  <advance width="820"/>
  <unicode hex="0040"/>
  <outline>
    <contour>
      <point x="405" y="-83" type="curve" smooth="yes"/>
      <point x="472" y="-83"/>
      <point x="529" y="-76"/>
      <point x="589" y="-58" type="curve"/>
      <point x="589" y="78" type="line"/>
      <point x="528" y="52"/>
      <point x="472" y="39"/>
      <point x="405" y="39" type="curve" smooth="yes"/>
      <point x="268" y="39"/>
      <point x="176" y="135"/>
      <point x="176" y="259" type="curve" smooth="yes"/>
      <point x="176" y="411"/>
      <point x="278" y="512"/>
      <point x="431" y="512" type="curve" smooth="yes"/>
      <point x="559" y="512"/>
      <point x="644" y="430"/>
      <point x="644" y="308" type="curve" smooth="yes"/>
      <point x="644" y="246"/>
      <point x="629" y="214"/>
      <point x="601" y="214" type="curve" smooth="yes"/>
      <point x="572" y="214"/>
      <point x="557" y="242"/>
      <point x="562" y="285" type="curve" smooth="yes"/>
      <point x="579" y="432" type="line"/>
      <point x="536" y="452"/>
      <point x="480" y="465"/>
      <point x="434" y="465" type="curve" smooth="yes"/>
      <point x="316" y="465"/>
      <point x="215" y="383"/>
      <point x="215" y="260" type="curve" smooth="yes"/>
      <point x="215" y="162"/>
      <point x="278" y="101"/>
      <point x="363" y="101" type="curve" smooth="yes"/>
      <point x="424" y="101"/>
      <point x="467" y="127"/>
      <point x="489" y="176" type="curve"/>
      <point x="475" y="176" type="line"/>
      <point x="485" y="127"/>
      <point x="532" y="95"/>
      <point x="592" y="95" type="curve" smooth="yes"/>
      <point x="705" y="95"/>
      <point x="780" y="183"/>
      <point x="780" y="316" type="curve" smooth="yes"/>
      <point x="780" y="507"/>
      <point x="619" y="634"/>
      <point x="428" y="634" type="curve" smooth="yes"/>
      <point x="197" y="634"/>
      <point x="40" y="483"/>
      <point x="40" y="257" type="curve" smooth="yes"/>
      <point x="40" y="56"/>
      <point x="186" y="-83"/>
    </contour>
    <contour>
      <point x="392" y="226" type="curve" smooth="yes"/>
      <point x="377" y="226"/>
      <point x="366" y="241"/>
      <point x="366" y="264" type="curve" smooth="yes"/>
      <point x="366" y="303"/>
      <point x="387" y="337"/>
      <point x="418" y="337" type="curve" smooth="yes"/>
      <point x="424" y="337"/>
      <point x="427" y="337"/>
      <point x="433" y="335" type="curve"/>
      <point x="426" y="287" type="line" smooth="yes"/>
      <point x="419" y="247"/>
      <point x="407" y="226"/>
    </contour>
  </outline>
</glyph>
<glyph name="A" format="2">
  <advance width="736"/>
  <unicode hex="0041"/>
  <anchor x="366" y="642" name="top"/>
  <anchor x="618" y="16" name="ogonek"/>
  <outline>
    <contour>
      <point x="12" y="0" type="line"/>
      <point x="255" y="0" type="line"/>
      <point x="274" y="89" type="line"/>
      <point x="252" y="89" type="line"/>
      <point x="450" y="89" type="line"/>
      <point x="428" y="89" type="line"/>
      <point x="447" y="0" type="line"/>
      <point x="724" y="0" type="line"/>
      <point x="548" y="658" type="line"/>
      <point x="189" y="658" type="line"/>
    </contour>
    <contour>
      <point x="308" y="245" type="line"/>
      <point x="320" y="298" type="line"/>
      <point x="365" y="498" type="line"/>
      <point x="338" y="498" type="line"/>
      <point x="382" y="298" type="line"/>
      <point x="394" y="245" type="line"/>
      <point x="413" y="245" type="line"/>
      <point x="287" y="245" type="line"/>
    </contour>
  </outline>
</glyph>
<glyph name="B" format="2">
  <advance width="680"/>
  <unicode hex="0042"/>
  <outline>
    <contour>
      <point x="44" y="0" type="line"/>
      <point x="402" y="0" type="line" smooth="yes"/>
      <point x="578" y="0"/>
      <point x="656" y="63"/>
      <point x="656" y="178" type="curve" smooth="yes"/>
      <point x="656" y="277"/>
      <point x="596" y="331"/>
      <point x="480" y="339" type="curve"/>
      <point x="480" y="319" type="line"/>
      <point x="588" y="333"/>
      <point x="643" y="391"/>
      <point x="643" y="492" type="curve" smooth="yes"/>
      <point x="643" y="600"/>
      <point x="563" y="658"/>
      <point x="411" y="658" type="curve" smooth="yes"/>
      <point x="44" y="658" type="line"/>
    </contour>
    <contour>
      <point x="300" y="404" type="line"/>
      <point x="300" y="504" type="line"/>
      <point x="327" y="504" type="line" smooth="yes"/>
      <point x="360" y="504"/>
      <point x="378" y="486"/>
      <point x="378" y="455" type="curve" smooth="yes"/>
      <point x="378" y="421"/>
      <point x="360" y="405"/>
      <point x="327" y="404" type="curve" smooth="yes"/>
    </contour>
    <contour>
      <point x="300" y="160" type="line"/>
      <point x="300" y="261" type="line"/>
      <point x="334" y="261" type="line" smooth="yes"/>
      <point x="369" y="260"/>
      <point x="388" y="244"/>
      <point x="388" y="210" type="curve" smooth="yes"/>
      <point x="388" y="179"/>
      <point x="369" y="160"/>
      <point x="334" y="160" type="curve" smooth="yes"/>
    </contour>
  </outline>
</glyph>
<glyph name="C" format="2">
  <advance width="605"/>
  <unicode hex="0043"/>
  <anchor x="365" y="654" name="top"/>
  <anchor x="371" y="8" name="bottom"/>
  <outline>
    <contour>
      <point x="392" y="-15" type="curve" smooth="yes"/>
      <point x="457" y="-15"/>
      <point x="518" y="-5"/>
      <point x="577" y="15" type="curve"/>
      <point x="577" y="251" type="line"/>
      <point x="528" y="230"/>
      <point x="481" y="216"/>
      <point x="429" y="216" type="curve" smooth="yes"/>
      <point x="361" y="216"/>
      <point x="316" y="252"/>
      <point x="316" y="330" type="curve" smooth="yes"/>
      <point x="316" y="406"/>
      <point x="361" y="441"/>
      <point x="429" y="441" type="curve" smooth="yes"/>
      <point x="479" y="441"/>
      <point x="525" y="428"/>
      <point x="571" y="408" type="curve"/>
      <point x="571" y="644" type="line"/>
      <point x="514" y="662"/>
      <point x="448" y="673"/>
      <point x="373" y="673" type="curve" smooth="yes"/>
      <point x="157" y="673"/>
      <point x="24" y="541"/>
      <point x="24" y="330" type="curve" smooth="yes"/>
      <point x="24" y="118"/>
      <point x="154" y="-15"/>
    </contour>
  </outline>
</glyph>
<glyph name="D" format="2">
  <advance width="737"/>
  <unicode hex="0044"/>
  <anchor x="327" y="642" name="top"/>
  <outline>
    <contour>
      <point x="44" y="0" type="line"/>
      <point x="330" y="0" type="line" smooth="yes"/>
      <point x="580" y="0"/>
      <point x="713" y="119"/>
      <point x="713" y="337" type="curve" smooth="yes"/>
      <point x="713" y="544"/>
      <point x="578" y="658"/>
      <point x="330" y="658" type="curve" smooth="yes"/>
      <point x="44" y="658" type="line"/>
    </contour>
    <contour>
      <point x="320" y="219" type="line"/>
      <point x="320" y="439" type="line"/>
      <point x="346" y="439" type="line" smooth="yes"/>
      <point x="395" y="439"/>
      <point x="421" y="402"/>
      <point x="421" y="337" type="curve" smooth="yes"/>
      <point x="421" y="261"/>
      <point x="395" y="219"/>
      <point x="346" y="219" type="curve" smooth="yes"/>
    </contour>
  </outline>
</glyph>
<glyph name="E" format="2">
  <advance width="582"/>
  <unicode hex="0045"/>
  <anchor x="293" y="642" name="top"/>
  <anchor x="539" y="16" name="ogonek"/>
  <outline>
    <contour>
      <point x="44" y="0" type="line"/>
      <point x="542" y="0" type="line"/>
      <point x="542" y="200" type="line"/>
      <point x="320" y="200" type="line"/>
      <point x="320" y="254" type="line"/>
      <point x="530" y="254" type="line"/>
      <point x="530" y="404" type="line"/>
      <point x="320" y="404" type="line"/>
      <point x="320" y="458" type="line"/>
      <point x="536" y="458" type="line"/>
      <point x="536" y="658" type="line"/>
      <point x="44" y="658" type="line"/>
    </contour>
  </outline>
</glyph>
<glyph name="G" format="2">
  <advance width="731"/>
  <unicode hex="0047"/>
  <anchor x="412" y="654" name="top"/>
  <anchor x="400" y="8" name="bottom"/>
  <outline>
    <contour>
      <point x="393" y="-15" type="curve" smooth="yes"/>
      <point x="502" y="-15"/>
      <point x="604" y="6"/>
      <point x="699" y="42" type="curve"/>
      <point x="699" y="402" type="line"/>
      <point x="386" y="402" type="line"/>
      <point x="386" y="248" type="line"/>
      <point x="435" y="248" type="line"/>
      <point x="435" y="200" type="line"/>
      <point x="420" y="195"/>
      <point x="408" y="192"/>
      <point x="394" y="192" type="curve" smooth="yes"/>
      <point x="339" y="192"/>
      <point x="317" y="231"/>
      <point x="317" y="333" type="curve" smooth="yes"/>
      <point x="317" y="428"/>
      <point x="364" y="465"/>
      <point x="443" y="465" type="curve" smooth="yes"/>
      <point x="517" y="465"/>
      <point x="588" y="454"/>
      <point x="656" y="433" type="curve"/>
      <point x="656" y="643" type="line"/>
      <point x="591" y="663"/>
      <point x="500" y="673"/>
      <point x="409" y="673" type="curve" smooth="yes"/>
      <point x="160" y="673"/>
      <point x="24" y="536"/>
      <point x="24" y="330" type="curve" smooth="yes"/>
      <point x="24" y="121"/>
      <point x="149" y="-15"/>
    </contour>
  </outline>
</glyph>
<glyph name="J" format="2">
  <advance width="372"/>
  <unicode hex="004A"/>
  <anchor x="190" y="642" name="top"/>
  <outline>
    <contour>
      <point x="33" y="-220" type="line" smooth="yes"/>
      <point x="228" y="-220"/>
      <point x="328" y="-132"/>
      <point x="328" y="38" type="curve" smooth="yes"/>
      <point x="328" y="658" type="line"/>
      <point x="52" y="658" type="line"/>
      <point x="52" y="30" type="line" smooth="yes"/>
      <point x="52" y="-14"/>
      <point x="34" y="-36"/>
      <point x="0" y="-36" type="curve" smooth="yes"/>
      <point x="-16" y="-36" type="line"/>
      <point x="-16" y="-220" type="line"/>
    </contour>
  </outline>
</glyph>
<glyph name="K" format="2">
  <advance width="745"/>
  <unicode hex="004B"/>
  <anchor x="372" y="16" name="bottom"/>
  <outline>
    <contour>
      <point x="44" y="0" type="line"/>
      <point x="320" y="0" type="line"/>
      <point x="320" y="321" type="line"/>
      <point x="301" y="321" type="line"/>
      <point x="427" y="0" type="line"/>
      <point x="729" y="0" type="line"/>
      <point x="562" y="367" type="line"/>
      <point x="564" y="317" type="line"/>
      <point x="723" y="658" type="line"/>
      <point x="431" y="658" type="line"/>
      <point x="301" y="327" type="line"/>
      <point x="320" y="327" type="line"/>
      <point x="320" y="658" type="line"/>
      <point x="44" y="658" type="line"/>
    </contour>
  </outline>
</glyph>
<glyph name="M" format="2">
  <advance width="963"/>
  <unicode hex="004D"/>
  <outline>
    <contour>
      <point x="44" y="0" type="line"/>
      <point x="264" y="0" type="line"/>
      <point x="264" y="280" type="line"/>
      <point x="257" y="552" type="line"/>
      <point x="238" y="552" type="line"/>
      <point x="290" y="280" type="line"/>
      <point x="353" y="0" type="line"/>
      <point x="564" y="0" type="line"/>
      <point x="627" y="280" type="line" smooth="yes"/>
      <point x="684" y="552" type="line"/>
      <point x="660" y="552" type="line"/>
      <point x="654" y="280" type="line"/>
      <point x="654" y="0" type="line"/>
      <point x="919" y="0" type="line"/>
      <point x="919" y="658" type="line"/>
      <point x="547" y="658" type="line"/>
      <point x="504" y="448" type="line"/>
      <point x="450" y="182" type="line"/>
      <point x="505" y="182" type="line"/>
      <point x="459" y="448" type="line"/>
      <point x="416" y="658" type="line"/>
      <point x="44" y="658" type="line"/>
    </contour>
  </outline>
</glyph>
<glyph name="O" format="2">
  <advance width="769"/>
  <unicode hex="004F"/>
  <anchor x="384" y="658" name="top"/>
  <outline>
    <contour>
      <point x="384" y="-18" type="curve" smooth="yes"/>
      <point x="601" y="-18"/>
      <point x="745" y="100"/>
      <point x="745" y="329" type="curve" smooth="yes"/>
      <point x="745" y="558"/>
      <point x="601" y="676"/>
      <point x="384" y="676" type="curve" smooth="yes"/>
      <point x="168" y="676"/>
      <point x="24" y="558"/>
      <point x="24" y="329" type="curve" smooth="yes"/>
      <point x="24" y="100"/>
      <point x="168" y="-18"/>
    </contour>
    <contour>
      <point x="384" y="210" type="curve" smooth="yes"/>
      <point x="336" y="210"/>
      <point x="316" y="244"/>
      <point x="316" y="329" type="curve" smooth="yes"/>
      <point x="316" y="415"/>
      <point x="336" y="448"/>
      <point x="384" y="448" type="curve" smooth="yes"/>
      <point x="432" y="448"/>
      <point x="452" y="415"/>
      <point x="452" y="329" type="curve" smooth="yes"/>
      <point x="452" y="244"/>
      <point x="432" y="210"/>
    </contour>
  </outline>
</glyph>
<glyph name="P" format="2">
  <advance width="699"/>
  <unicode hex="0050"/>
  <outline>
    <contour>
      <point x="44" y="0" type="line"/>
      <point x="320" y="0" type="line"/>
      <point x="320" y="132" type="line"/>
      <point x="379" y="132" type="line" smooth="yes"/>
      <point x="574" y="132"/>
      <point x="679" y="232"/>
      <point x="679" y="399" type="curve" smooth="yes"/>
      <point x="679" y="563"/>
      <point x="575" y="658"/>
      <point x="381" y="658" type="curve" smooth="yes"/>
      <point x="44" y="658" type="line"/>
    </contour>
    <contour>
      <point x="320" y="328" type="line"/>
      <point x="320" y="458" type="line"/>
      <point x="347" y="458" type="line" smooth="yes"/>
      <point x="381" y="458"/>
      <point x="400" y="436"/>
      <point x="400" y="396" type="curve" smooth="yes"/>
      <point x="400" y="352"/>
      <point x="381" y="328"/>
      <point x="348" y="328" type="curve" smooth="yes"/>
    </contour>
  </outline>
</glyph>
<glyph name="R" format="2">
  <advance width="722"/>
  <unicode hex="0052"/>
  <anchor x="344" y="642" name="top"/>
  <anchor x="371" y="16" name="bottom"/>
  <outline>
    <contour>
      <point x="423" y="0" type="line"/>
      <point x="706" y="0" type="line"/>
      <point x="666" y="194" type="line" smooth="yes"/>
      <point x="651" y="268"/>
      <point x="588" y="312"/>
      <point x="494" y="325" type="curve"/>
      <point x="494" y="304" type="line"/>
      <point x="606" y="318"/>
      <point x="664" y="377"/>
      <point x="664" y="478" type="curve" smooth="yes"/>
      <point x="664" y="597"/>
      <point x="585" y="658"/>
      <point x="433" y="658" type="curve" smooth="yes"/>
      <point x="44" y="658" type="line"/>
      <point x="44" y="0" type="line"/>
      <point x="320" y="0" type="line"/>
      <point x="320" y="225" type="line"/>
      <point x="335" y="225" type="line" smooth="yes"/>
      <point x="363" y="225"/>
      <point x="381" y="213"/>
      <point x="387" y="183" type="curve" smooth="yes"/>
    </contour>
    <contour>
      <point x="320" y="381" type="line"/>
      <point x="320" y="486" type="line"/>
      <point x="346" y="486" type="line" smooth="yes"/>
      <point x="381" y="486"/>
      <point x="401" y="468"/>
      <point x="401" y="436" type="curve" smooth="yes"/>
      <point x="401" y="401"/>
      <point x="381" y="381"/>
      <point x="346" y="381" type="curve" smooth="yes"/>
    </contour>
  </outline>
</glyph>
<glyph name="S" format="2">
  <advance width="635"/>
  <unicode hex="0053"/>
  <anchor x="317" y="654" name="top"/>
  <anchor x="317" y="5" name="bottom"/>
  <outline>
    <contour>
      <point x="309" y="-18" type="curve" smooth="yes"/>
      <point x="510" y="-18"/>
      <point x="613" y="63"/>
      <point x="613" y="218" type="curve" smooth="yes"/>
      <point x="613" y="348"/>
      <point x="523" y="411"/>
      <point x="347" y="433" type="curve" smooth="yes"/>
      <point x="331" y="435" type="line" smooth="yes"/>
      <point x="304" y="438"/>
      <point x="294" y="445"/>
      <point x="294" y="459" type="curve" smooth="yes"/>
      <point x="294" y="477"/>
      <point x="310" y="484"/>
      <point x="352" y="484" type="curve" smooth="yes"/>
      <point x="424" y="484"/>
      <point x="496" y="469"/>
      <point x="565" y="441" type="curve"/>
      <point x="565" y="644" type="line"/>
      <point x="481" y="665"/>
      <point x="396" y="676"/>
      <point x="317" y="676" type="curve" smooth="yes"/>
      <point x="122" y="676"/>
      <point x="22" y="598"/>
      <point x="22" y="449" type="curve" smooth="yes"/>
      <point x="22" y="314"/>
      <point x="111" y="251"/>
      <point x="284" y="229" type="curve" smooth="yes"/>
      <point x="300" y="227" type="line" smooth="yes"/>
      <point x="327" y="223"/>
      <point x="337" y="216"/>
      <point x="337" y="201" type="curve" smooth="yes"/>
      <point x="337" y="182"/>
      <point x="319" y="175"/>
      <point x="272" y="175" type="curve" smooth="yes"/>
      <point x="193" y="175"/>
      <point x="127" y="191"/>
      <point x="38" y="231" type="curve"/>
      <point x="38" y="28" type="line"/>
      <point x="140" y="-5"/>
      <point x="216" y="-18"/>
    </contour>
  </outline>
</glyph>
<glyph name="T" format="2">
  <advance width="564"/>
  <unicode hex="0054"/>
  <anchor x="283" y="642" name="top"/>
  <anchor x="287" y="16" name="bottom"/>
  <outline>
    <contour>
      <point x="144" y="0" type="line"/>
      <point x="420" y="0" type="line"/>
      <point x="420" y="438" type="line"/>
      <point x="544" y="438" type="line"/>
      <point x="544" y="658" type="line"/>
      <point x="20" y="658" type="line"/>
      <point x="20" y="438" type="line"/>
      <point x="144" y="438" type="line"/>
    </contour>
  </outline>
</glyph>
<glyph name="U" format="2">
  <advance width="718"/>
  <unicode hex="0055"/>
  <anchor x="366" y="642" name="top"/>
  <outline>
    <contour>
      <point x="360" y="-18" type="curve" smooth="yes"/>
      <point x="565" y="-18"/>
      <point x="678" y="82"/>
      <point x="678" y="253" type="curve" smooth="yes"/>
      <point x="678" y="658" type="line"/>
      <point x="416" y="658" type="line"/>
      <point x="416" y="269" type="line" smooth="yes"/>
      <point x="416" y="232"/>
      <point x="399" y="210"/>
      <point x="366" y="210" type="curve" smooth="yes"/>
      <point x="334" y="210"/>
      <point x="316" y="232"/>
      <point x="316" y="269" type="curve" smooth="yes"/>
      <point x="316" y="658" type="line"/>
      <point x="40" y="658" type="line"/>
      <point x="40" y="253" type="line" smooth="yes"/>
      <point x="40" y="82"/>
      <point x="154" y="-18"/>
    </contour>
  </outline>
</glyph>
<glyph name="W" format="2">
  <advance width="1043"/>
  <unicode hex="0057"/>
  <anchor x="535" y="642" name="top"/>
  <outline>
    <contour>
      <point x="116" y="0" type="line"/>
      <point x="466" y="0" type="line"/>
      <point x="498" y="238" type="line"/>
      <point x="543" y="597" type="line"/>
      <point x="482" y="597" type="line"/>
      <point x="526" y="238" type="line"/>
      <point x="558" y="0" type="line"/>
      <point x="927" y="0" type="line"/>
      <point x="1031" y="658" type="line"/>
      <point x="791" y="658" type="line"/>
      <point x="759" y="358" type="line"/>
      <point x="733" y="67" type="line"/>
      <point x="755" y="67" type="line"/>
      <point x="729" y="358" type="line"/>
      <point x="699" y="658" type="line"/>
      <point x="373" y="658" type="line"/>
      <point x="343" y="360" type="line"/>
      <point x="317" y="59" type="line"/>
      <point x="338" y="59" type="line"/>
      <point x="312" y="360" type="line"/>
      <point x="280" y="658" type="line"/>
      <point x="12" y="658" type="line"/>
    </contour>
  </outline>
</glyph>
<glyph name="X" format="2">
  <advance width="713"/>
  <unicode hex="0058"/>
  <outline>
    <contour>
      <point x="16" y="0" type="line"/>
      <point x="280" y="0" type="line"/>
      <point x="324" y="120" type="line"/>
      <point x="358" y="247" type="line"/>
      <point x="517" y="266" type="line"/>
      <point x="696" y="658" type="line"/>
      <point x="432" y="658" type="line"/>
      <point x="392" y="543" type="line"/>
      <point x="358" y="413" type="line"/>
      <point x="202" y="395" type="line"/>
    </contour>
    <contour>
      <point x="401" y="0" type="line"/>
      <point x="697" y="0" type="line"/>
      <point x="535" y="394" type="line"/>
      <point x="390" y="414" type="line"/>
      <point x="356" y="543" type="line"/>
      <point x="316" y="658" type="line"/>
      <point x="20" y="658" type="line"/>
      <point x="182" y="267" type="line"/>
      <point x="325" y="246" type="line"/>
      <point x="359" y="119" type="line"/>
    </contour>
  </outline>
</glyph>
<glyph name="Y" format="2">
  <advance width="703"/>
  <unicode hex="0059"/>
  <anchor x="363" y="642" name="top"/>
  <outline>
    <contour>
      <point x="212" y="0" type="line"/>
      <point x="488" y="0" type="line"/>
      <point x="488" y="220" type="line"/>
      <point x="475" y="121" type="line"/>
      <point x="691" y="658" type="line"/>
      <point x="421" y="658" type="line"/>
      <point x="385" y="508" type="line"/>
      <point x="337" y="274" type="line"/>
      <point x="392" y="274" type="line"/>
      <point x="344" y="508" type="line"/>
      <point x="308" y="658" type="line"/>
      <point x="12" y="658" type="line"/>
      <point x="228" y="120" type="line"/>
      <point x="212" y="219" type="line"/>
    </contour>
  </outline>
</glyph>
<glyph name="Z" format="2">
  <advance width="657"/>
  <unicode hex="005A"/>
  <anchor x="336" y="642" name="top"/>
  <outline>
    <contour>
      <point x="36" y="0" type="line"/>
      <point x="621" y="0" type="line"/>
      <point x="621" y="220" type="line"/>
      <point x="335" y="220" type="line"/>
      <point x="335" y="126" type="line"/>
      <point x="457" y="283" type="line"/>
      <point x="621" y="526" type="line"/>
      <point x="621" y="658" type="line"/>
      <point x="37" y="658" type="line"/>
      <point x="37" y="438" type="line"/>
      <point x="327" y="438" type="line"/>
      <point x="327" y="532" type="line"/>
      <point x="207" y="376" type="line"/>
      <point x="36" y="132" type="line"/>
    </contour>
  </outline>
</glyph>
<glyph name="a" format="2">
  <advance width="595"/>
  <unicode hex="0061"/>
  <anchor x="298" y="502" name="top"/>
  <outline>
    <contour>
      <point x="191" y="-12" type="curve" smooth="yes"/>
      <point x="252" y="-12"/>
      <point x="292" y="16"/>
      <point x="324" y="62" type="curve"/>
      <point x="335" y="0" type="line"/>
      <point x="563" y="0" type="line"/>
      <point x="563" y="337" type="line" smooth="yes"/>
      <point x="563" y="464"/>
      <point x="451" y="514"/>
      <point x="286" y="514" type="curve" smooth="yes"/>
      <point x="203" y="514"/>
      <point x="125" y="504"/>
      <point x="49" y="487" type="curve"/>
      <point x="49" y="309" type="line"/>
      <point x="113" y="334"/>
      <point x="190" y="349"/>
      <point x="259" y="349" type="curve" smooth="yes"/>
      <point x="305" y="349"/>
      <point x="323" y="340"/>
      <point x="323" y="317" type="curve" smooth="yes"/>
      <point x="323" y="312" type="line"/>
      <point x="236" y="304" type="line" smooth="yes"/>
      <point x="104" y="292"/>
      <point x="20" y="254"/>
      <point x="20" y="143" type="curve" smooth="yes"/>
      <point x="20" y="48"/>
      <point x="86" y="-12"/>
    </contour>
    <contour>
      <point x="288" y="149" type="curve" smooth="yes"/>
      <point x="268" y="149"/>
      <point x="257" y="158"/>
      <point x="257" y="177" type="curve" smooth="yes"/>
      <point x="257" y="195"/>
      <point x="269" y="207"/>
      <point x="290" y="209" type="curve" smooth="yes"/>
      <point x="323" y="212" type="line"/>
      <point x="323" y="166" type="line"/>
      <point x="315" y="155"/>
      <point x="303" y="149"/>
    </contour>
  </outline>
</glyph>
<glyph name="b" format="2">
  <advance width="632"/>
  <unicode hex="0062"/>
  <outline>
    <contour>
      <point x="309" y="-12" type="curve" smooth="yes"/>
      <point x="512" y="-12"/>
      <point x="610" y="96"/>
      <point x="610" y="268" type="curve" smooth="yes"/>
      <point x="610" y="419"/>
      <point x="517" y="514"/>
      <point x="402" y="514" type="curve" smooth="yes"/>
      <point x="336" y="514"/>
      <point x="302" y="488"/>
      <point x="284" y="469" type="curve"/>
      <point x="284" y="716" type="line"/>
      <point x="34" y="716" type="line"/>
      <point x="34" y="26" type="line"/>
      <point x="125" y="1"/>
      <point x="215" y="-12"/>
    </contour>
    <contour>
      <point x="313" y="167" type="curve" smooth="yes"/>
      <point x="303" y="167"/>
      <point x="292" y="170"/>
      <point x="284" y="175" type="curve"/>
      <point x="284" y="318" type="line"/>
      <point x="293" y="323"/>
      <point x="304" y="326"/>
      <point x="314" y="326" type="curve" smooth="yes"/>
      <point x="348" y="326"/>
      <point x="368" y="301"/>
      <point x="368" y="250" type="curve" smooth="yes"/>
      <point x="368" y="193"/>
      <point x="348" y="167"/>
    </contour>
  </outline>
</glyph>
<glyph name="c" format="2">
  <advance width="495"/>
  <unicode hex="0063"/>
  <anchor x="289" y="498" name="top"/>
  <anchor x="279" y="16" name="bottom"/>
  <outline>
    <contour>
      <point x="303" y="-12" type="curve" smooth="yes"/>
      <point x="359" y="-12"/>
      <point x="418" y="-3"/>
      <point x="469" y="14" type="curve"/>
      <point x="469" y="222" type="line"/>
      <point x="436" y="204"/>
      <point x="393" y="195"/>
      <point x="357" y="195" type="curve" smooth="yes"/>
      <point x="303" y="195"/>
      <point x="280" y="215"/>
      <point x="280" y="254" type="curve" smooth="yes"/>
      <point x="280" y="291"/>
      <point x="302" y="310"/>
      <point x="353" y="310" type="curve" smooth="yes"/>
      <point x="388" y="310"/>
      <point x="430" y="304"/>
      <point x="466" y="291" type="curve"/>
      <point x="466" y="500" type="line"/>
      <point x="413" y="512"/>
      <point x="358" y="518"/>
      <point x="303" y="518" type="curve" smooth="yes"/>
      <point x="118" y="518"/>
      <point x="22" y="426"/>
      <point x="22" y="247" type="curve" smooth="yes"/>
      <point x="22" y="76"/>
      <point x="118" y="-12"/>
    </contour>
  </outline>
</glyph>
<glyph name="d" format="2">
  <advance width="638"/>
  <unicode hex="0064"/>
  <anchor x="760" y="700" name="caron.vert"/>
  <outline>
    <contour>
      <point x="209" y="-12" type="curve" smooth="yes"/>
      <point x="277" y="-12"/>
      <point x="322" y="15"/>
      <point x="353" y="64" type="curve"/>
      <point x="363" y="0" type="line"/>
      <point x="604" y="0" type="line"/>
      <point x="604" y="716" type="line"/>
      <point x="353" y="716" type="line"/>
      <point x="353" y="492" type="line"/>
      <point x="320" y="506"/>
      <point x="279" y="514"/>
      <point x="244" y="514" type="curve" smooth="yes"/>
      <point x="95" y="514"/>
      <point x="22" y="408"/>
      <point x="22" y="243" type="curve" smooth="yes"/>
      <point x="22" y="87"/>
      <point x="89" y="-12"/>
    </contour>
    <contour>
      <point x="334" y="181" type="curve" smooth="yes"/>
      <point x="300" y="181"/>
      <point x="280" y="206"/>
      <point x="280" y="257" type="curve" smooth="yes"/>
      <point x="280" y="314"/>
      <point x="300" y="340"/>
      <point x="335" y="340" type="curve" smooth="yes"/>
      <point x="345" y="340"/>
      <point x="356" y="337"/>
      <point x="364" y="332" type="curve"/>
      <point x="364" y="189" type="line"/>
      <point x="355" y="184"/>
      <point x="344" y="181"/>
    </contour>
  </outline>
</glyph>
<glyph name="e" format="2">
  <advance width="586"/>
  <unicode hex="0065"/>
  <anchor x="307" y="502" name="top"/>
  <outline>
    <contour>
      <point x="314" y="-20" type="curve" smooth="yes"/>
      <point x="414" y="-20"/>
      <point x="465" y="-11"/>
      <point x="553" y="15" type="curve"/>
      <point x="553" y="189" type="line"/>
      <point x="484" y="165"/>
      <point x="425" y="154"/>
      <point x="361" y="154" type="curve" smooth="yes"/>
      <point x="292" y="154"/>
      <point x="271" y="170"/>
      <point x="271" y="223" type="curve" smooth="yes"/>
      <point x="271" y="263" type="line" smooth="yes"/>
      <point x="271" y="345"/>
      <point x="285" y="370"/>
      <point x="318" y="370" type="curve" smooth="yes"/>
      <point x="350" y="370"/>
      <point x="361" y="344"/>
      <point x="361" y="305" type="curve"/>
      <point x="231" y="305" type="line"/>
      <point x="231" y="209" type="line"/>
      <point x="562" y="209" type="line"/>
      <point x="562" y="235" type="line" smooth="yes"/>
      <point x="562" y="415"/>
      <point x="493" y="522"/>
      <point x="316" y="522" type="curve" smooth="yes"/>
      <point x="134" y="522"/>
      <point x="22" y="418"/>
      <point x="22" y="252" type="curve" smooth="yes"/>
      <point x="22" y="84"/>
      <point x="137" y="-20"/>
    </contour>
  </outline>
</glyph>
<glyph name="f" format="2">
  <advance width="390"/>
  <unicode hex="0066"/>
  <outline>
    <contour>
      <point x="64" y="0" type="line"/>
      <point x="314" y="0" type="line"/>
      <point x="314" y="322" type="line"/>
      <point x="370" y="322" type="line"/>
      <point x="370" y="502" type="line"/>
      <point x="314" y="502" type="line"/>
      <point x="314" y="517" type="line" smooth="yes"/>
      <point x="314" y="545"/>
      <point x="329" y="558"/>
      <point x="369" y="558" type="curve" smooth="yes"/>
      <point x="382" y="558"/>
      <point x="403" y="556"/>
      <point x="430" y="553" type="curve"/>
      <point x="430" y="717" type="line"/>
      <point x="385" y="725"/>
      <point x="350" y="728"/>
      <point x="309" y="728" type="curve" smooth="yes"/>
      <point x="139" y="728"/>
      <point x="64" y="657"/>
      <point x="64" y="540" type="curve" smooth="yes"/>
      <point x="64" y="502" type="line"/>
      <point x="24" y="502" type="line"/>
      <point x="24" y="322" type="line"/>
      <point x="64" y="322" type="line"/>
    </contour>
  </outline>
</glyph>
<glyph name="g" format="2">
  <advance width="636"/>
  <unicode hex="0067"/>
  <anchor x="307" y="502" name="top"/>
  <outline>
    <contour>
      <point x="325" y="170" type="curve" smooth="yes"/>
      <point x="291" y="170"/>
      <point x="271" y="195"/>
      <point x="271" y="246" type="curve" smooth="yes"/>
      <point x="271" y="303"/>
      <point x="291" y="329"/>
      <point x="326" y="329" type="curve" smooth="yes"/>
      <point x="336" y="329"/>
      <point x="347" y="326"/>
      <point x="355" y="321" type="curve"/>
      <point x="355" y="178" type="line"/>
      <point x="346" y="173"/>
      <point x="335" y="170"/>
    </contour>
    <contour>
      <point x="308" y="-220" type="curve" smooth="yes"/>
      <point x="451" y="-220"/>
      <point x="602" y="-150"/>
      <point x="602" y="53" type="curve" smooth="yes"/>
      <point x="602" y="502" type="line"/>
      <point x="481" y="502" type="line"/>
      <point x="453" y="448" type="line"/>
      <point x="420" y="484"/>
      <point x="362" y="518"/>
      <point x="273" y="518" type="curve" smooth="yes"/>
      <point x="139" y="518"/>
      <point x="22" y="416"/>
      <point x="22" y="254" type="curve" smooth="yes"/>
      <point x="22" y="99"/>
      <point x="89" y="2"/>
      <point x="228" y="2" type="curve" smooth="yes"/>
      <point x="279" y="2"/>
      <point x="319" y="16"/>
      <point x="355" y="54" type="curve"/>
      <point x="355" y="40" type="line" smooth="yes"/>
      <point x="355" y="-19"/>
      <point x="299" y="-46"/>
      <point x="225" y="-46" type="curve" smooth="yes"/>
      <point x="168" y="-46"/>
      <point x="104" y="-30"/>
      <point x="51" y="4" type="curve"/>
      <point x="51" y="-181" type="line"/>
      <point x="133" y="-208"/>
      <point x="214" y="-220"/>
    </contour>
  </outline>
</glyph>
<glyph name="h" format="2">
  <advance width="625"/>
  <unicode hex="0068"/>
  <anchor x="160" y="685" name="top"/>
  <outline>
    <contour>
      <point x="34" y="0" type="line"/>
      <point x="284" y="0" type="line"/>
      <point x="284" y="292" type="line"/>
      <point x="289" y="299"/>
      <point x="300" y="305"/>
      <point x="312" y="305" type="curve" smooth="yes"/>
      <point x="337" y="305"/>
      <point x="343" y="291"/>
      <point x="343" y="272" type="curve" smooth="yes"/>
      <point x="343" y="0" type="line"/>
      <point x="593" y="0" type="line"/>
      <point x="593" y="351" type="line" smooth="yes"/>
      <point x="593" y="450"/>
      <point x="511" y="517"/>
      <point x="431" y="517" type="curve" smooth="yes"/>
      <point x="350" y="517"/>
      <point x="315" y="483"/>
      <point x="284" y="442" type="curve"/>
      <point x="284" y="716" type="line"/>
      <point x="34" y="716" type="line"/>
    </contour>
  </outline>
</glyph>
<glyph name="i" format="2">
  <advance width="318"/>
  <unicode hex="0069"/>
  <anchor x="159" y="486" name="top"/>
  <anchor x="282" y="16" name="ogonek"/>
  <outline>
    <contour>
      <point x="34" y="0" type="line"/>
      <point x="284" y="0" type="line"/>
      <point x="284" y="502" type="line"/>
      <point x="34" y="502" type="line"/>
    </contour>
    <contour>
      <point x="34" y="550" type="line"/>
      <point x="284" y="550" type="line"/>
      <point x="284" y="716" type="line"/>
      <point x="34" y="716" type="line"/>
    </contour>
  </outline>
</glyph>
<glyph name="j" format="2">
  <advance width="317"/>
  <unicode hex="006A"/>
  <anchor x="160" y="486" name="top"/>
  <outline>
    <contour>
      <point x="14" y="-220" type="line" smooth="yes"/>
      <point x="209" y="-220"/>
      <point x="283" y="-157"/>
      <point x="283" y="21" type="curve" smooth="yes"/>
      <point x="283" y="502" type="line"/>
      <point x="33" y="502" type="line"/>
      <point x="33" y="4" type="line" smooth="yes"/>
      <point x="33" y="-24"/>
      <point x="18" y="-38"/>
      <point x="-4" y="-38" type="curve" smooth="yes"/>
      <point x="-12" y="-38" type="line"/>
      <point x="-12" y="-220" type="line"/>
    </contour>
    <contour>
      <point x="33" y="550" type="line"/>
      <point x="283" y="550" type="line"/>
      <point x="283" y="716" type="line"/>
      <point x="33" y="716" type="line"/>
    </contour>
  </outline>
</glyph>
<glyph name="k" format="2">
  <advance width="638"/>
  <unicode hex="006B"/>
  <anchor x="317" y="16" name="bottom"/>
  <outline>
    <contour>
      <point x="34" y="0" type="line"/>
      <point x="284" y="0" type="line"/>
      <point x="284" y="250" type="line"/>
      <point x="263" y="250" type="line"/>
      <point x="352" y="0" type="line"/>
      <point x="621" y="0" type="line"/>
      <point x="512" y="277" type="line"/>
      <point x="512" y="228" type="line"/>
      <point x="622" y="502" type="line"/>
      <point x="358" y="502" type="line"/>
      <point x="263" y="257" type="line"/>
      <point x="284" y="257" type="line"/>
      <point x="284" y="716" type="line"/>
      <point x="34" y="716" type="line"/>
    </contour>
  </outline>
</glyph>
<glyph name="m" format="2">
  <advance width="936"/>
  <unicode hex="006D"/>
  <outline>
    <contour>
      <point x="34" y="0" type="line"/>
      <point x="284" y="0" type="line"/>
      <point x="284" y="293" type="line"/>
      <point x="289" y="299"/>
      <point x="300" y="305"/>
      <point x="312" y="305" type="curve" smooth="yes"/>
      <point x="338" y="305"/>
      <point x="344" y="292"/>
      <point x="344" y="272" type="curve" smooth="yes"/>
      <point x="344" y="0" type="line"/>
      <point x="594" y="0" type="line"/>
      <point x="594" y="293" type="line"/>
      <point x="601" y="300"/>
      <point x="611" y="305"/>
      <point x="622" y="305" type="curve" smooth="yes"/>
      <point x="648" y="305"/>
      <point x="654" y="292"/>
      <point x="654" y="272" type="curve" smooth="yes"/>
      <point x="654" y="0" type="line"/>
      <point x="904" y="0" type="line"/>
      <point x="904" y="352" type="line" smooth="yes"/>
      <point x="904" y="453"/>
      <point x="826" y="518"/>
      <point x="740" y="518" type="curve" smooth="yes"/>
      <point x="677" y="518"/>
      <point x="628" y="499"/>
      <point x="577" y="418" type="curve"/>
      <point x="549" y="483"/>
      <point x="493" y="518"/>
      <point x="430" y="518" type="curve" smooth="yes"/>
      <point x="351" y="518"/>
      <point x="315" y="484"/>
      <point x="284" y="442" type="curve"/>
      <point x="284" y="502" type="line"/>
      <point x="34" y="502" type="line"/>
    </contour>
  </outline>
</glyph>
<glyph name="n" format="2">
  <advance width="625"/>
  <unicode hex="006E"/>
  <anchor x="310" y="494" name="top"/>
  <anchor x="314" y="16" name="bottom"/>
  <outline>
    <contour>
      <point x="34" y="0" type="line"/>
      <point x="284" y="0" type="line"/>
      <point x="284" y="292" type="line"/>
      <point x="289" y="299"/>
      <point x="300" y="305"/>
      <point x="312" y="305" type="curve" smooth="yes"/>
      <point x="337" y="305"/>
      <point x="343" y="291"/>
      <point x="343" y="272" type="curve" smooth="yes"/>
      <point x="343" y="0" type="line"/>
      <point x="593" y="0" type="line"/>
      <point x="593" y="351" type="line" smooth="yes"/>
      <point x="593" y="452"/>
      <point x="511" y="518"/>
      <point x="427" y="518" type="curve" smooth="yes"/>
      <point x="350" y="518"/>
      <point x="315" y="483"/>
      <point x="284" y="442" type="curve"/>
      <point x="284" y="502" type="line"/>
      <point x="34" y="502" type="line"/>
    </contour>
  </outline>
</glyph>
<glyph name="o" format="2">
  <advance width="638"/>
  <unicode hex="006F"/>
  <anchor x="320" y="502" name="top"/>
  <outline>
    <contour>
      <point x="318" y="-24" type="curve" smooth="yes"/>
      <point x="517" y="-24"/>
      <point x="616" y="86"/>
      <point x="616" y="252" type="curve" smooth="yes"/>
      <point x="616" y="416"/>
      <point x="517" y="526"/>
      <point x="318" y="526" type="curve" smooth="yes"/>
      <point x="121" y="526"/>
      <point x="22" y="416"/>
      <point x="22" y="252" type="curve" smooth="yes"/>
      <point x="22" y="86"/>
      <point x="121" y="-24"/>
    </contour>
    <contour>
      <point x="320" y="168" type="curve" smooth="yes"/>
      <point x="291" y="168"/>
      <point x="280" y="191"/>
      <point x="280" y="252" type="curve" smooth="yes"/>
      <point x="280" y="310"/>
      <point x="291" y="334"/>
      <point x="318" y="334" type="curve" smooth="yes"/>
      <point x="348" y="334"/>
      <point x="358" y="310"/>
      <point x="358" y="252" type="curve" smooth="yes"/>
      <point x="358" y="191"/>
      <point x="348" y="168"/>
    </contour>
  </outline>
</glyph>
<glyph name="p" format="2">
  <advance width="632"/>
  <unicode hex="0070"/>
  <outline>
    <contour>
      <point x="34" y="-198" type="line"/>
      <point x="284" y="-198" type="line"/>
      <point x="284" y="-4" type="line"/>
      <point x="305" y="-9"/>
      <point x="327" y="-12"/>
      <point x="345" y="-12" type="curve" smooth="yes"/>
      <point x="501" y="-12"/>
      <point x="610" y="105"/>
      <point x="610" y="267" type="curve" smooth="yes"/>
      <point x="610" y="415"/>
      <point x="545" y="514"/>
      <point x="420" y="514" type="curve" smooth="yes"/>
      <point x="356" y="514"/>
      <point x="313" y="486"/>
      <point x="284" y="443" type="curve"/>
      <point x="284" y="502" type="line"/>
      <point x="34" y="502" type="line"/>
    </contour>
    <contour>
      <point x="313" y="161" type="curve" smooth="yes"/>
      <point x="303" y="161"/>
      <point x="292" y="164"/>
      <point x="284" y="169" type="curve"/>
      <point x="284" y="312" type="line"/>
      <point x="293" y="317"/>
      <point x="304" y="320"/>
      <point x="314" y="320" type="curve" smooth="yes"/>
      <point x="348" y="320"/>
      <point x="368" y="295"/>
      <point x="368" y="244" type="curve" smooth="yes"/>
      <point x="368" y="187"/>
      <point x="348" y="161"/>
    </contour>
  </outline>
</glyph>
<glyph name="q" format="2">
  <advance width="650"/>
  <unicode hex="0071"/>
  <outline>
    <contour>
      <point x="366" y="-200" type="line"/>
      <point x="616" y="-200" type="line"/>
      <point x="616" y="502" type="line"/>
      <point x="467" y="502" type="line"/>
      <point x="450" y="446" type="line"/>
      <point x="415" y="490"/>
      <point x="362" y="513"/>
      <point x="295" y="513" type="curve" smooth="yes"/>
      <point x="140" y="513"/>
      <point x="22" y="400"/>
      <point x="22" y="231" type="curve" smooth="yes"/>
      <point x="22" y="71"/>
      <point x="109" y="-30"/>
      <point x="241" y="-30" type="curve" smooth="yes"/>
      <point x="291" y="-30"/>
      <point x="336" y="-16"/>
      <point x="366" y="20" type="curve"/>
    </contour>
    <contour>
      <point x="337" y="156" type="curve" smooth="yes"/>
      <point x="303" y="156"/>
      <point x="283" y="181"/>
      <point x="283" y="232" type="curve" smooth="yes"/>
      <point x="283" y="289"/>
      <point x="303" y="315"/>
      <point x="338" y="315" type="curve" smooth="yes"/>
      <point x="348" y="315"/>
      <point x="359" y="312"/>
      <point x="367" y="307" type="curve"/>
      <point x="367" y="164" type="line"/>
      <point x="358" y="159"/>
      <point x="347" y="156"/>
    </contour>
  </outline>
</glyph>
<glyph name="r" format="2">
  <advance width="465"/>
  <unicode hex="0072"/>
  <anchor x="241" y="486" name="top"/>
  <anchor x="164" y="16" name="bottom"/>
  <outline>
    <contour>
      <point x="34" y="0" type="line"/>
      <point x="284" y="0" type="line"/>
      <point x="284" y="256" type="line"/>
      <point x="305" y="270"/>
      <point x="339" y="278"/>
      <point x="364" y="278" type="curve" smooth="yes"/>
      <point x="399" y="278"/>
      <point x="423" y="271"/>
      <point x="453" y="255" type="curve"/>
      <point x="453" y="508" type="line"/>
      <point x="435" y="515"/>
      <point x="417" y="518"/>
      <point x="397" y="518" type="curve" smooth="yes"/>
      <point x="356" y="518"/>
      <point x="314" y="494"/>
      <point x="285" y="427" type="curve"/>
      <point x="276" y="502" type="line"/>
      <point x="34" y="502" type="line"/>
    </contour>
  </outline>
</glyph>
<glyph name="s" format="2">
  <advance width="518"/>
  <unicode hex="0073"/>
  <anchor x="260" y="494" name="top"/>
  <anchor x="254" y="8" name="bottom"/>
  <outline>
    <contour>
      <point x="254" y="-16" type="curve" smooth="yes"/>
      <point x="420" y="-16"/>
      <point x="498" y="55"/>
      <point x="498" y="158" type="curve" smooth="yes"/>
      <point x="498" y="252"/>
      <point x="447" y="311"/>
      <point x="341" y="331" type="curve" smooth="yes"/>
      <point x="289" y="341" type="line" smooth="yes"/>
      <point x="276" y="344"/>
      <point x="268" y="351"/>
      <point x="268" y="360" type="curve" smooth="yes"/>
      <point x="268" y="372"/>
      <point x="281" y="378"/>
      <point x="303" y="378" type="curve" smooth="yes"/>
      <point x="360" y="378"/>
      <point x="407" y="365"/>
      <point x="468" y="337" type="curve"/>
      <point x="468" y="491" type="line"/>
      <point x="398" y="508"/>
      <point x="330" y="516"/>
      <point x="257" y="516" type="curve" smooth="yes"/>
      <point x="98" y="516"/>
      <point x="20" y="449"/>
      <point x="20" y="344" type="curve" smooth="yes"/>
      <point x="20" y="258"/>
      <point x="71" y="202"/>
      <point x="170" y="179" type="curve" smooth="yes"/>
      <point x="222" y="167" type="line" smooth="yes"/>
      <point x="241" y="163"/>
      <point x="251" y="157"/>
      <point x="251" y="145" type="curve" smooth="yes"/>
      <point x="251" y="134"/>
      <point x="238" y="128"/>
      <point x="219" y="128" type="curve" smooth="yes"/>
      <point x="154" y="128"/>
      <point x="94" y="144"/>
      <point x="32" y="174" type="curve"/>
      <point x="32" y="9" type="line"/>
      <point x="107" y="-8"/>
      <point x="178" y="-16"/>
    </contour>
  </outline>
</glyph>
<glyph name="t" format="2">
  <advance width="403"/>
  <unicode hex="0074"/>
  <anchor x="223" y="8" name="bottom"/>
  <anchor x="467" y="757" name="caron.vert"/>
  <outline>
    <contour>
      <point x="224" y="-12" type="curve" smooth="yes"/>
      <point x="278" y="-12"/>
      <point x="328" y="-7"/>
      <point x="379" y="10" type="curve"/>
      <point x="379" y="179" type="line"/>
      <point x="368" y="175"/>
      <point x="355" y="174"/>
      <point x="343" y="174" type="curve" smooth="yes"/>
      <point x="329" y="174"/>
      <point x="316" y="185"/>
      <point x="316" y="202" type="curve" smooth="yes"/>
      <point x="316" y="322" type="line"/>
      <point x="379" y="322" type="line"/>
      <point x="379" y="502" type="line"/>
      <point x="316" y="502" type="line"/>
      <point x="316" y="626" type="line"/>
      <point x="64" y="626" type="line"/>
      <point x="64" y="502" type="line"/>
      <point x="20" y="502" type="line"/>
      <point x="20" y="322" type="line"/>
      <point x="64" y="322" type="line"/>
      <point x="64" y="159" type="line" smooth="yes"/>
      <point x="64" y="29"/>
      <point x="145" y="-12"/>
    </contour>
  </outline>
</glyph>
<glyph name="u" format="2">
  <advance width="625"/>
  <unicode hex="0075"/>
  <anchor x="309" y="486" name="top"/>
  <anchor x="585" y="16" name="ogonek"/>
  <outline>
    <contour>
      <point x="198" y="-16" type="curve" smooth="yes"/>
      <point x="275" y="-16"/>
      <point x="310" y="19"/>
      <point x="341" y="60" type="curve"/>
      <point x="349" y="0" type="line"/>
      <point x="591" y="0" type="line"/>
      <point x="591" y="502" type="line"/>
      <point x="341" y="502" type="line"/>
      <point x="341" y="210" type="line"/>
      <point x="336" y="203"/>
      <point x="325" y="197"/>
      <point x="313" y="197" type="curve" smooth="yes"/>
      <point x="288" y="197"/>
      <point x="282" y="211"/>
      <point x="282" y="230" type="curve" smooth="yes"/>
      <point x="282" y="502" type="line"/>
      <point x="32" y="502" type="line"/>
      <point x="32" y="151" type="line" smooth="yes"/>
      <point x="32" y="50"/>
      <point x="114" y="-16"/>
    </contour>
  </outline>
</glyph>
<glyph name="v" format="2">
  <advance width="585"/>
  <unicode hex="0076"/>
  <outline>
    <contour>
      <point x="121" y="0" type="line"/>
      <point x="464" y="0" type="line"/>
      <point x="569" y="502" type="line"/>
      <point x="353" y="502" type="line"/>
      <point x="327" y="320" type="line"/>
      <point x="299" y="60" type="line"/>
      <point x="322" y="60" type="line"/>
      <point x="293" y="320" type="line"/>
      <point x="267" y="502" type="line"/>
      <point x="16" y="502" type="line"/>
    </contour>
  </outline>
</glyph>
<glyph name="w" format="2">
  <advance width="888"/>
  <unicode hex="0077"/>
  <anchor x="461" y="498" name="top"/>
  <outline>
    <contour>
      <point x="97" y="0" type="line"/>
      <point x="412" y="0" type="line"/>
      <point x="425" y="116" type="line"/>
      <point x="470" y="425" type="line"/>
      <point x="432" y="425" type="line"/>
      <point x="476" y="116" type="line"/>
      <point x="489" y="0" type="line"/>
      <point x="791" y="1" type="line"/>
      <point x="876" y="502" type="line"/>
      <point x="676" y="502" type="line"/>
      <point x="659" y="320" type="line"/>
      <point x="629" y="52" type="line"/>
      <point x="651" y="52" type="line"/>
      <point x="618" y="320" type="line"/>
      <point x="596" y="502" type="line"/>
      <point x="328" y="502" type="line"/>
      <point x="306" y="320" type="line"/>
      <point x="276" y="52" type="line"/>
      <point x="298" y="52" type="line"/>
      <point x="271" y="320" type="line"/>
      <point x="254" y="502" type="line"/>
      <point x="12" y="502" type="line"/>
    </contour>
  </outline>
</glyph>
<glyph name="x" format="2">
  <advance width="620"/>
  <unicode hex="0078"/>
  <outline>
    <contour>
      <point x="18" y="0" type="line"/>
      <point x="247" y="0" type="line"/>
      <point x="269" y="100" type="line"/>
      <point x="286" y="196" type="line"/>
      <point x="495" y="192" type="line"/>
      <point x="604" y="502" type="line"/>
      <point x="373" y="502" type="line"/>
      <point x="351" y="400" type="line"/>
      <point x="334" y="304" type="line"/>
      <point x="127" y="317" type="line"/>
    </contour>
    <contour>
      <point x="314" y="0" type="line"/>
      <point x="599" y="0" type="line"/>
      <point x="509" y="309" type="line"/>
      <point x="344" y="304" type="line"/>
      <point x="328" y="400" type="line"/>
      <point x="306" y="502" type="line"/>
      <point x="16" y="502" type="line"/>
      <point x="112" y="200" type="line"/>
      <point x="277" y="196" type="line"/>
      <point x="292" y="100" type="line"/>
    </contour>
  </outline>
</glyph>
<glyph name="y" format="2">
  <advance width="617"/>
  <unicode hex="0079"/>
  <anchor x="326" y="486" name="top"/>
  <outline>
    <contour>
      <point x="36" y="-219" type="line" smooth="yes"/>
      <point x="332" y="-219"/>
      <point x="478" y="-99"/>
      <point x="537" y="181" type="curve" smooth="yes"/>
      <point x="605" y="502" type="line"/>
      <point x="371" y="502" type="line"/>
      <point x="347" y="320" type="line"/>
      <point x="311" y="4" type="line"/>
      <point x="335" y="4" type="line"/>
      <point x="300" y="320" type="line"/>
      <point x="276" y="502" type="line"/>
      <point x="12" y="502" type="line"/>
      <point x="116" y="3" type="line"/>
      <point x="231" y="-24" type="line"/>
      <point x="220" y="6" type="line"/>
      <point x="169" y="-40"/>
      <point x="97" y="-48"/>
      <point x="36" y="-48" type="curve" smooth="yes"/>
      <point x="27" y="-48" type="line"/>
      <point x="27" y="-219" type="line"/>
    </contour>
  </outline>
</glyph>
<glyph name="braceleft" format="2">
  <advance width="499"/>
  <unicode hex="007B"/>
  <outline>
    <contour>
      <point x="388" y="-220" type="curve" smooth="yes"/>
      <point x="447" y="-220" type="line"/>
      <point x="447" y="-44" type="line"/>
      <point x="431" y="-44" type="line" smooth="yes"/>
      <point x="405" y="-44"/>
      <point x="385" y="-24"/>
      <point x="388" y="16" type="curve" smooth="yes"/>
      <point x="394" y="91" type="line" smooth="yes"/>
      <point x="400" y="166"/>
      <point x="356" y="224"/>
      <point x="277" y="247" type="curve"/>
      <point x="277" y="249" type="line"/>
      <point x="357" y="269"/>
      <point x="401" y="327"/>
      <point x="395" y="405" type="curve" smooth="yes"/>
      <point x="389" y="480" type="line" smooth="yes"/>
      <point x="386" y="520"/>
      <point x="406" y="540"/>
      <point x="431" y="540" type="curve" smooth="yes"/>
      <point x="447" y="540" type="line"/>
      <point x="447" y="716" type="line"/>
      <point x="388" y="716" type="line" smooth="yes"/>
      <point x="232" y="716"/>
      <point x="134" y="636"/>
      <point x="142" y="514" type="curve" smooth="yes"/>
      <point x="148" y="420" type="line" smooth="yes"/>
      <point x="151" y="366"/>
      <point x="116" y="338"/>
      <point x="52" y="336" type="curve"/>
      <point x="52" y="160" type="line"/>
      <point x="116" y="158"/>
      <point x="151" y="130"/>
      <point x="148" y="76" type="curve" smooth="yes"/>
      <point x="142" y="-18" type="line" smooth="yes"/>
      <point x="134" y="-140"/>
      <point x="232" y="-220"/>
    </contour>
  </outline>
</glyph>
<glyph name="braceright" format="2">
  <advance width="499"/>
  <unicode hex="007D"/>
  <outline>
    <contour>
      <point x="52" y="-220" type="line"/>
      <point x="111" y="-220" type="line" smooth="yes"/>
      <point x="267" y="-220"/>
      <point x="365" y="-140"/>
      <point x="357" y="-18" type="curve" smooth="yes"/>
      <point x="351" y="76" type="line" smooth="yes"/>
      <point x="348" y="130"/>
      <point x="383" y="158"/>
      <point x="447" y="160" type="curve"/>
      <point x="447" y="336" type="line"/>
      <point x="383" y="338"/>
      <point x="348" y="366"/>
      <point x="351" y="420" type="curve" smooth="yes"/>
      <point x="357" y="514" type="line" smooth="yes"/>
      <point x="365" y="636"/>
      <point x="267" y="716"/>
      <point x="111" y="716" type="curve" smooth="yes"/>
      <point x="52" y="716" type="line"/>
      <point x="52" y="540" type="line"/>
      <point x="68" y="540" type="line" smooth="yes"/>
      <point x="93" y="540"/>
      <point x="113" y="520"/>
      <point x="110" y="480" type="curve" smooth="yes"/>
      <point x="104" y="405" type="line" smooth="yes"/>
      <point x="98" y="327"/>
      <point x="142" y="269"/>
      <point x="222" y="249" type="curve"/>
      <point x="222" y="247" type="line"/>
      <point x="143" y="224"/>
      <point x="99" y="166"/>
      <point x="105" y="91" type="curve" smooth="yes"/>
      <point x="111" y="16" type="line" smooth="yes"/>
      <point x="114" y="-24"/>
      <point x="94" y="-44"/>
      <point x="68" y="-44" type="curve" smooth="yes"/>
      <point x="52" y="-44" type="line"/>
    </contour>
  </outline>
</glyph>
<glyph name="questiondown" format="2">
  <advance width="540"/>
  <unicode hex="00BF"/>
  <outline>
    <contour>
      <point x="183" y="322" type="line"/>
      <point x="427" y="322" type="line"/>
      <point x="427" y="502" type="line"/>
      <point x="183" y="502" type="line"/>
    </contour>
    <contour>
      <point x="300" y="-213" type="curve" smooth="yes"/>
      <point x="389" y="-213"/>
      <point x="443" y="-203"/>
      <point x="516" y="-177" type="curve"/>
      <point x="516" y="26" type="line"/>
      <point x="461" y="0"/>
      <point x="421" y="-10"/>
      <point x="376" y="-10" type="curve" smooth="yes"/>
      <point x="338" y="-10"/>
      <point x="312" y="5"/>
      <point x="312" y="33" type="curve" smooth="yes"/>
      <point x="312" y="57"/>
      <point x="325" y="76"/>
      <point x="353" y="103" type="curve" smooth="yes"/>
      <point x="402" y="150"/>
      <point x="420" y="198"/>
      <point x="420" y="270" type="curve"/>
      <point x="192" y="270" type="line"/>
      <point x="192" y="233"/>
      <point x="175" y="199"/>
      <point x="142" y="170" type="curve" smooth="yes"/>
      <point x="50" y="90"/>
      <point x="24" y="43"/>
      <point x="24" y="-30" type="curve" smooth="yes"/>
      <point x="24" y="-145"/>
      <point x="118" y="-213"/>
    </contour>
  </outline>
</glyph>
<glyph name="acutecmb" format="2">
  <unicode hex="0301"/>
  <anchor x="0" y="486" name="_top"/>
  <outline>
    <contour>
      <point x="82" y="558" type="line"/>
      <point x="211" y="734" type="line"/>
      <point x="1" y="734" type="line"/>
      <point x="-88" y="558" type="line"/>
    </contour>
  </outline>
</glyph>
<glyph name="pi" format="2">
  <advance width="672"/>
  <unicode hex="03C0"/>
  <outline>
    <contour>
      <point x="58" y="0" type="line"/>
      <point x="308" y="0" type="line"/>
      <point x="308" y="322" type="line"/>
      <point x="364" y="322" type="line"/>
      <point x="364" y="0" type="line"/>
      <point x="614" y="0" type="line"/>
      <point x="614" y="322" type="line"/>
      <point x="656" y="322" type="line"/>
      <point x="656" y="502" type="line"/>
      <point x="16" y="502" type="line"/>
      <point x="16" y="322" type="line"/>
      <point x="58" y="322" type="line"/>
    </contour>
  </outline>
</glyph>
<glyph name="quoteleft" format="2">
  <advance width="349"/>
  <unicode hex="2018"/>
  <outline>
    <contour>
      <point x="44" y="397" type="line"/>
      <point x="288" y="397" type="line"/>
      <point x="288" y="537" type="line" smooth="yes"/>
      <point x="288" y="619"/>
      <point x="293" y="677"/>
      <point x="317" y="756" type="curve"/>
      <point x="113" y="780" type="line"/>
      <point x="62" y="711"/>
      <point x="44" y="634"/>
      <point x="44" y="537" type="curve" smooth="yes"/>
    </contour>
  </outline>
</glyph>
<glyph name="quotesinglbase" format="2">
  <advance width="349"/>
  <unicode hex="201A"/>
  <outline>
    <contour>
      <point x="305" y="224" type="line"/>
      <point x="61" y="224" type="line"/>
      <point x="61" y="84" type="line" smooth="yes"/>
      <point x="61" y="2"/>
      <point x="56" y="-56"/>
      <point x="32" y="-135" type="curve"/>
      <point x="236" y="-159" type="line"/>
      <point x="287" y="-90"/>
      <point x="305" y="-13"/>
      <point x="305" y="84" type="curve" smooth="yes"/>
    </contour>
  </outline>
</glyph>
<glyph name="quotedblleft" format="2">
  <advance width="661"/>
  <unicode hex="201C"/>
  <outline>
    <contour>
      <point x="32" y="397" type="line"/>
      <point x="276" y="397" type="line"/>
      <point x="276" y="545" type="line" smooth="yes"/>
      <point x="276" y="627"/>
      <point x="281" y="677"/>
      <point x="305" y="756" type="curve"/>
      <point x="101" y="780" type="line"/>
      <point x="50" y="711"/>
      <point x="32" y="642"/>
      <point x="32" y="545" type="curve" smooth="yes"/>
    </contour>
    <contour>
      <point x="344" y="397" type="line"/>
      <point x="588" y="397" type="line"/>
      <point x="588" y="545" type="line" smooth="yes"/>
      <point x="588" y="627"/>
      <point x="593" y="677"/>
      <point x="617" y="756" type="curve"/>
      <point x="413" y="780" type="line"/>
      <point x="362" y="711"/>
      <point x="344" y="642"/>
      <point x="344" y="545" type="curve" smooth="yes"/>
    </contour>
  </outline>
</glyph>
<glyph name="quotedblright" format="2">
  <advance width="661"/>
  <unicode hex="201D"/>
  <outline>
    <contour>
      <point x="236" y="391" type="line"/>
      <point x="287" y="460"/>
      <point x="305" y="537"/>
      <point x="305" y="634" type="curve" smooth="yes"/>
      <point x="305" y="774" type="line"/>
      <point x="61" y="774" type="line"/>
      <point x="61" y="634" type="line" smooth="yes"/>
      <point x="61" y="552"/>
      <point x="56" y="494"/>
      <point x="32" y="415" type="curve"/>
    </contour>
    <contour>
      <point x="548" y="391" type="line"/>
      <point x="599" y="460"/>
      <point x="617" y="537"/>
      <point x="617" y="634" type="curve" smooth="yes"/>
      <point x="617" y="774" type="line"/>
      <point x="373" y="774" type="line"/>
      <point x="373" y="634" type="line" smooth="yes"/>
      <point x="373" y="552"/>
      <point x="368" y="494"/>
      <point x="344" y="415" type="curve"/>
    </contour>
  </outline>
</glyph>
<glyph name="Omega" format="2">
  <advance width="722"/>
  <unicode hex="A7B6"/>
  <unicode hex="2126"/>
  <outline>
    <contour>
      <point x="29" y="0" type="line"/>
      <point x="341" y="0" type="line"/>
      <point x="341" y="291" type="line"/>
      <point x="319" y="298"/>
      <point x="300" y="325"/>
      <point x="300" y="368" type="curve" smooth="yes"/>
      <point x="300" y="419"/>
      <point x="326" y="449"/>
      <point x="361" y="449" type="curve" smooth="yes"/>
      <point x="396" y="449"/>
      <point x="422" y="419"/>
      <point x="422" y="368" type="curve" smooth="yes"/>
      <point x="422" y="325"/>
      <point x="402" y="296"/>
      <point x="381" y="291" type="curve"/>
      <point x="381" y="0" type="line"/>
      <point x="693" y="0" type="line"/>
      <point x="693" y="220" type="line"/>
      <point x="484" y="220" type="line"/>
      <point x="545" y="195" type="line"/>
      <point x="545" y="270" type="line"/>
      <point x="498" y="234" type="line"/>
      <point x="623" y="241"/>
      <point x="706" y="312"/>
      <point x="706" y="443" type="curve" smooth="yes"/>
      <point x="706" y="575"/>
      <point x="573" y="678"/>
      <point x="361" y="678" type="curve" smooth="yes"/>
      <point x="149" y="678"/>
      <point x="16" y="573"/>
      <point x="16" y="437" type="curve" smooth="yes"/>
      <point x="16" y="310"/>
      <point x="99" y="241"/>
      <point x="224" y="234" type="curve"/>
      <point x="177" y="270" type="line"/>
      <point x="177" y="205" type="line"/>
      <point x="226" y="220" type="line"/>
      <point x="29" y="220" type="line"/>
    </contour>
  </outline>
</glyph>
<glyph name="Euro.lc" format="2">
  <advance width="562"/>
  <outline>
    <contour>
      <point x="32" y="215" type="line"/>
      <point x="371" y="215" type="line"/>
      <point x="371" y="243" type="line"/>
      <point x="32" y="243" type="line"/>
    </contour>
    <contour>
      <point x="32" y="262" type="line"/>
      <point x="371" y="262" type="line"/>
      <point x="371" y="290" type="line"/>
      <point x="32" y="290" type="line"/>
    </contour>
    <component base="c" xOffset="43"/>
  </outline>
</glyph>
<glyph name="J.base" format="2">
  <advance width="400"/>
  <anchor x="222" y="642" name="top"/>
  <outline>
    <contour>
      <point x="49" y="-24" type="line" smooth="yes"/>
      <point x="260" y="-24"/>
      <point x="360" y="72"/>
      <point x="360" y="242" type="curve" smooth="yes"/>
      <point x="360" y="658" type="line"/>
      <point x="84" y="658" type="line"/>
      <point x="84" y="249" type="line" smooth="yes"/>
      <point x="84" y="218"/>
      <point x="66" y="196"/>
      <point x="32" y="196" type="curve" smooth="yes"/>
      <point x="24" y="196" type="line"/>
      <point x="24" y="-24" type="line"/>
    </contour>
  </outline>
</glyph>
<glyph name="S.sc" format="2">
  <advance width="545"/>
  <anchor x="275" y="540" name="top"/>
  <anchor x="267" y="8" name="bottom"/>
  <outline>
    <contour>
      <point x="266" y="-16" type="curve" smooth="yes"/>
      <point x="419" y="-16"/>
      <point x="521" y="48"/>
      <point x="521" y="173" type="curve" smooth="yes"/>
      <point x="521" y="278"/>
      <point x="461" y="330"/>
      <point x="296" y="357" type="curve" smooth="yes"/>
      <point x="284" y="359" type="line" smooth="yes"/>
      <point x="266" y="362"/>
      <point x="256" y="365"/>
      <point x="256" y="379" type="curve" smooth="yes"/>
      <point x="256" y="390"/>
      <point x="267" y="397"/>
      <point x="301" y="397" type="curve" smooth="yes"/>
      <point x="366" y="397"/>
      <point x="430" y="385"/>
      <point x="490" y="359" type="curve"/>
      <point x="490" y="527" type="line"/>
      <point x="415" y="546"/>
      <point x="351" y="553"/>
      <point x="283" y="553" type="curve" smooth="yes"/>
      <point x="128" y="553"/>
      <point x="24" y="490"/>
      <point x="24" y="367" type="curve" smooth="yes"/>
      <point x="24" y="261"/>
      <point x="84" y="209"/>
      <point x="247" y="182" type="curve" smooth="yes"/>
      <point x="259" y="180" type="line" smooth="yes"/>
      <point x="281" y="176"/>
      <point x="288" y="170"/>
      <point x="288" y="160" type="curve" smooth="yes"/>
      <point x="288" y="145"/>
      <point x="272" y="140"/>
      <point x="234" y="140" type="curve" smooth="yes"/>
      <point x="164" y="140"/>
      <point x="102" y="157"/>
      <point x="34" y="182" type="curve"/>
      <point x="34" y="18" type="line"/>
      <point x="106" y="-3"/>
      <point x="172" y="-16"/>
    </contour>
  </outline>
</glyph>
<glyph name="braceleft.uc" format="2">
  <advance width="473"/>
  <outline>
    <contour>
      <point x="362" y="-58" type="curve" smooth="yes"/>
      <point x="421" y="-58" type="line"/>
      <point x="421" y="122" type="line"/>
      <point x="405" y="122" type="line" smooth="yes"/>
      <point x="376" y="122"/>
      <point x="355" y="140"/>
      <point x="362" y="167" type="curve" smooth="yes"/>
      <point x="369" y="196" type="line" smooth="yes"/>
      <point x="384" y="259"/>
      <point x="345" y="302"/>
      <point x="261" y="328" type="curve"/>
      <point x="261" y="330" type="line"/>
      <point x="346" y="352"/>
      <point x="386" y="396"/>
      <point x="370" y="462" type="curve" smooth="yes"/>
      <point x="363" y="491" type="line" smooth="yes"/>
      <point x="356" y="518"/>
      <point x="376" y="536"/>
      <point x="405" y="536" type="curve" smooth="yes"/>
      <point x="421" y="536" type="line"/>
      <point x="421" y="716" type="line"/>
      <point x="362" y="716" type="line" smooth="yes"/>
      <point x="195" y="716"/>
      <point x="97" y="640"/>
      <point x="116" y="526" type="curve" smooth="yes"/>
      <point x="124" y="478" type="line" smooth="yes"/>
      <point x="130" y="441"/>
      <point x="107" y="421"/>
      <point x="52" y="419" type="curve"/>
      <point x="52" y="239" type="line"/>
      <point x="107" y="236"/>
      <point x="130" y="216"/>
      <point x="124" y="180" type="curve" smooth="yes"/>
      <point x="116" y="132" type="line" smooth="yes"/>
      <point x="97" y="18"/>
      <point x="195" y="-58"/>
    </contour>
  </outline>
</glyph>
<glyph name="braceright.uc" format="2">
  <advance width="473"/>
  <outline>
    <contour>
      <point x="52" y="-58" type="line"/>
      <point x="111" y="-58" type="line" smooth="yes"/>
      <point x="278" y="-58"/>
      <point x="376" y="18"/>
      <point x="357" y="132" type="curve" smooth="yes"/>
      <point x="349" y="180" type="line" smooth="yes"/>
      <point x="343" y="216"/>
      <point x="366" y="236"/>
      <point x="421" y="239" type="curve"/>
      <point x="421" y="419" type="line"/>
      <point x="366" y="421"/>
      <point x="343" y="441"/>
      <point x="349" y="478" type="curve" smooth="yes"/>
      <point x="357" y="526" type="line" smooth="yes"/>
      <point x="376" y="640"/>
      <point x="278" y="716"/>
      <point x="111" y="716" type="curve" smooth="yes"/>
      <point x="52" y="716" type="line"/>
      <point x="52" y="536" type="line"/>
      <point x="68" y="536" type="line" smooth="yes"/>
      <point x="97" y="536"/>
      <point x="117" y="518"/>
      <point x="110" y="491" type="curve" smooth="yes"/>
      <point x="103" y="462" type="line" smooth="yes"/>
      <point x="87" y="396"/>
      <point x="127" y="352"/>
      <point x="212" y="330" type="curve"/>
      <point x="212" y="328" type="line"/>
      <point x="128" y="302"/>
      <point x="89" y="259"/>
      <point x="104" y="196" type="curve" smooth="yes"/>
      <point x="111" y="167" type="line" smooth="yes"/>
      <point x="118" y="140"/>
      <point x="97" y="122"/>
      <point x="68" y="122" type="curve" smooth="yes"/>
      <point x="52" y="122" type="line"/>
    </contour>
  </outline>
</glyph>
<glyph name="dollar.lc_AT_weight800" format="2">
  <advance width="558"/>
  <outline>
    <contour>
      <point x="197" y="432" type="line"/>
      <point x="369" y="432" type="line"/>
      <point x="369" y="604" type="line"/>
      <point x="197" y="604" type="line"/>
    </contour>
    <contour>
      <point x="197" y="-102" type="line"/>
      <point x="369" y="-102" type="line"/>
      <point x="369" y="70" type="line"/>
      <point x="197" y="70" type="line"/>
    </contour>
    <component base="s" xOffset="20"/>
  </outline>
</glyph>
<glyph name="dollar_AT_weight800" format="2">
  <advance width="671"/>
  <outline>
    <contour>
      <point x="255" y="662" type="line"/>
      <point x="435" y="662" type="line"/>
      <point x="435" y="762" type="line"/>
      <point x="255" y="762" type="line"/>
    </contour>
    <contour>
      <point x="255" y="-102" type="line"/>
      <point x="435" y="-102" type="line"/>
      <point x="435" y="-1" type="line"/>
      <point x="255" y="-1" type="line"/>
    </contour>
    <component base="S" xOffset="18"/>
  </outline>
</glyph>
<glyph name="f.salt_connect" format="2">
  <advance width="370"/>
  <outline>
    <contour>
      <point x="64" y="0" type="line"/>
      <point x="314" y="0" type="line"/>
      <point x="314" y="322" type="line"/>
      <point x="359" y="322" type="line"/>
      <point x="359" y="502" type="line"/>
      <point x="314" y="502" type="line"/>
      <point x="314" y="511" type="line" smooth="yes"/>
      <point x="314" y="537"/>
      <point x="331" y="554"/>
      <point x="361" y="554" type="curve" smooth="yes"/>
      <point x="389" y="554"/>
      <point x="424" y="549"/>
      <point x="462" y="540" type="curve"/>
      <point x="462" y="715" type="line"/>
      <point x="429" y="722"/>
      <point x="381" y="728"/>
      <point x="336" y="728" type="curve" smooth="yes"/>
      <point x="150" y="728"/>
      <point x="64" y="650"/>
      <point x="64" y="528" type="curve" smooth="yes"/>
      <point x="64" y="502" type="line"/>
      <point x="24" y="502" type="line"/>
      <point x="24" y="322" type="line"/>
      <point x="64" y="322" type="line"/>
    </contour>
  </outline>
</glyph>
<glyph name="f.salt_noconnect" format="2">
  <advance width="378"/>
  <outline>
    <contour>
      <point x="64" y="0" type="line"/>
      <point x="314" y="0" type="line"/>
      <point x="314" y="322" type="line"/>
      <point x="359" y="322" type="line"/>
      <point x="359" y="502" type="line"/>
      <point x="314" y="502" type="line"/>
      <point x="314" y="528" type="line" smooth="yes"/>
      <point x="314" y="545"/>
      <point x="321" y="558"/>
      <point x="339" y="558" type="curve" smooth="yes"/>
      <point x="345" y="558"/>
      <point x="354" y="558"/>
      <point x="366" y="556" type="curve"/>
      <point x="366" y="721" type="line"/>
      <point x="329" y="726"/>
      <point x="300" y="728"/>
      <point x="266" y="728" type="curve" smooth="yes"/>
      <point x="126" y="728"/>
      <point x="64" y="657"/>
      <point x="64" y="539" type="curve" smooth="yes"/>
      <point x="64" y="502" type="line"/>
      <point x="24" y="502" type="line"/>
      <point x="24" y="322" type="line"/>
      <point x="64" y="322" type="line"/>
    </contour>
  </outline>
</glyph>
<glyph name="five.dnom" format="2">
  <advance width="345"/>
  <outline>
    <contour>
      <point x="166" y="-20" type="curve" smooth="yes"/>
      <point x="273" y="-20"/>
      <point x="325" y="31"/>
      <point x="325" y="109" type="curve" smooth="yes"/>
      <point x="325" y="183"/>
      <point x="279" y="215"/>
      <point x="185" y="215" type="curve" smooth="yes"/>
      <point x="176" y="215"/>
      <point x="153" y="214"/>
      <point x="134" y="212" type="curve"/>
      <point x="143" y="204" type="line"/>
      <point x="145" y="240" type="line"/>
      <point x="305" y="240" type="line"/>
      <point x="305" y="360" type="line"/>
      <point x="33" y="360" type="line"/>
      <point x="20" y="134" type="line"/>
      <point x="65" y="140"/>
      <point x="98" y="141"/>
      <point x="125" y="141" type="curve" smooth="yes"/>
      <point x="160" y="141"/>
      <point x="173" y="132"/>
      <point x="173" y="120" type="curve" smooth="yes"/>
      <point x="173" y="109"/>
      <point x="165" y="98"/>
      <point x="145" y="98" type="curve" smooth="yes"/>
      <point x="99" y="98"/>
      <point x="61" y="104"/>
      <point x="20" y="115" type="curve"/>
      <point x="20" y="-3" type="line"/>
      <point x="73" y="-16"/>
      <point x="119" y="-20"/>
    </contour>
  </outline>
</glyph>
<glyph name="five.lc" format="2">
  <advance width="599"/>
  <outline>
    <contour>
      <point x="254" y="-158" type="curve" smooth="yes"/>
      <point x="445" y="-158"/>
      <point x="571" y="-70"/>
      <point x="571" y="68" type="curve" smooth="yes"/>
      <point x="571" y="175"/>
      <point x="476" y="246"/>
      <point x="319" y="246" type="curve" smooth="yes"/>
      <point x="258" y="246"/>
      <point x="215" y="235"/>
      <point x="186" y="223" type="curve"/>
      <point x="252" y="200" type="line"/>
      <point x="257" y="284" type="line"/>
      <point x="544" y="284" type="line"/>
      <point x="544" y="520" type="line"/>
      <point x="55" y="520" type="line"/>
      <point x="31" y="104" type="line"/>
      <point x="83" y="116"/>
      <point x="147" y="122"/>
      <point x="212" y="122" type="curve" smooth="yes"/>
      <point x="270" y="122"/>
      <point x="287" y="104"/>
      <point x="287" y="86" type="curve" smooth="yes"/>
      <point x="287" y="69"/>
      <point x="269" y="52"/>
      <point x="209" y="52" type="curve" smooth="yes"/>
      <point x="144" y="52"/>
      <point x="80" y="57"/>
      <point x="28" y="68" type="curve"/>
      <point x="28" y="-142" type="line"/>
      <point x="90" y="-152"/>
      <point x="155" y="-158"/>
    </contour>
  </outline>
</glyph>
<glyph name="g.salt" format="2">
  <advance width="628"/>
  <anchor x="294" y="502" name="top"/>
  <outline>
    <contour>
      <point x="299" y="-248" type="curve" smooth="yes"/>
      <point x="490" y="-248"/>
      <point x="608" y="-186"/>
      <point x="608" y="-57" type="curve" smooth="yes"/>
      <point x="608" y="44"/>
      <point x="529" y="98"/>
      <point x="374" y="102" type="curve" smooth="yes"/>
      <point x="287" y="104" type="line" smooth="yes"/>
      <point x="275" y="104"/>
      <point x="267" y="113"/>
      <point x="267" y="122" type="curve" smooth="yes"/>
      <point x="267" y="139"/>
      <point x="289" y="151"/>
      <point x="325" y="154" type="curve"/>
      <point x="223" y="191" type="line"/>
      <point x="114" y="180"/>
      <point x="41" y="139"/>
      <point x="41" y="81" type="curve" smooth="yes"/>
      <point x="41" y="0"/>
      <point x="128" y="-62"/>
      <point x="255" y="-65" type="curve" smooth="yes"/>
      <point x="334" y="-67" type="line" smooth="yes"/>
      <point x="352" y="-67"/>
      <point x="364" y="-79"/>
      <point x="364" y="-94" type="curve" smooth="yes"/>
      <point x="364" y="-113"/>
      <point x="344" y="-124"/>
      <point x="305" y="-124" type="curve" smooth="yes"/>
      <point x="266" y="-124"/>
      <point x="246" y="-114"/>
      <point x="246" y="-96" type="curve" smooth="yes"/>
      <point x="246" y="-79"/>
      <point x="262" y="-68"/>
      <point x="294" y="-65" type="curve"/>
      <point x="294" y="7" type="line"/>
      <point x="113" y="7"/>
      <point x="20" y="-38"/>
      <point x="20" y="-110" type="curve" smooth="yes"/>
      <point x="20" y="-201"/>
      <point x="114" y="-248"/>
    </contour>
    <contour>
      <point x="303" y="290" type="curve" smooth="yes"/>
      <point x="281" y="290"/>
      <point x="267" y="307"/>
      <point x="267" y="333" type="curve" smooth="yes"/>
      <point x="267" y="358"/>
      <point x="281" y="374"/>
      <point x="303" y="374" type="curve" smooth="yes"/>
      <point x="325" y="374"/>
      <point x="339" y="358"/>
      <point x="339" y="333" type="curve" smooth="yes"/>
      <point x="339" y="307"/>
      <point x="325" y="290"/>
    </contour>
    <contour>
      <point x="603" y="576" type="line"/>
      <point x="537" y="576"/>
      <point x="463" y="554"/>
      <point x="412" y="513" type="curve"/>
      <point x="380" y="522"/>
      <point x="343" y="526"/>
      <point x="302" y="526" type="curve" smooth="yes"/>
      <point x="140" y="526"/>
      <point x="32" y="459"/>
      <point x="32" y="330" type="curve" smooth="yes"/>
      <point x="32" y="203"/>
      <point x="140" y="138"/>
      <point x="302" y="138" type="curve" smooth="yes"/>
      <point x="461" y="138"/>
      <point x="567" y="203"/>
      <point x="567" y="330" type="curve" smooth="yes"/>
      <point x="567" y="366"/>
      <point x="559" y="398"/>
      <point x="543" y="424" type="curve"/>
      <point x="564" y="428"/>
      <point x="586" y="429"/>
      <point x="603" y="429" type="curve"/>
    </contour>
  </outline>
</glyph>
<glyph name="one.lc" format="2">
  <advance width="466"/>
  <outline>
    <contour>
      <point x="32" y="0" type="line"/>
      <point x="434" y="0" type="line"/>
      <point x="434" y="200" type="line"/>
      <point x="375" y="200" type="line"/>
      <point x="375" y="537" type="line"/>
      <point x="32" y="521" type="line"/>
      <point x="32" y="310" type="line"/>
      <point x="91" y="310" type="line"/>
      <point x="91" y="200" type="line"/>
      <point x="32" y="200" type="line"/>
    </contour>
  </outline>
</glyph>
<glyph name="parenleft.uc" format="2">
  <advance width="437"/>
  <outline>
    <contour>
      <point x="161" y="-58" type="curve"/>
      <point x="405" y="-58" type="line"/>
      <point x="333" y="73"/>
      <point x="292" y="204"/>
      <point x="292" y="329" type="curve" smooth="yes"/>
      <point x="292" y="467"/>
      <point x="332" y="599"/>
      <point x="400" y="716" type="curve"/>
      <point x="156" y="716" type="line"/>
      <point x="89" y="607"/>
      <point x="56" y="486"/>
      <point x="56" y="334" type="curve" smooth="yes"/>
      <point x="56" y="193"/>
      <point x="90" y="70"/>
    </contour>
  </outline>
</glyph>
<glyph name="parenright.uc" format="2">
  <advance width="437"/>
  <outline>
    <contour>
      <point x="276" y="-58" type="line"/>
      <point x="347" y="70"/>
      <point x="381" y="193"/>
      <point x="381" y="334" type="curve" smooth="yes"/>
      <point x="381" y="486"/>
      <point x="348" y="607"/>
      <point x="281" y="716" type="curve"/>
      <point x="37" y="716" type="line"/>
      <point x="105" y="599"/>
      <point x="145" y="467"/>
      <point x="145" y="329" type="curve" smooth="yes"/>
      <point x="145" y="204"/>
      <point x="104" y="73"/>
      <point x="32" y="-58" type="curve"/>
    </contour>
  </outline>
</glyph>
<glyph name="seven.lc" format="2">
  <advance width="604"/>
  <outline>
    <contour>
      <point x="51" y="-146" type="line" smooth="yes"/>
      <point x="362" y="-146" type="line" smooth="yes"/>
      <point x="576" y="330" type="line" smooth="yes"/>
      <point x="576" y="520" type="line" smooth="yes"/>
      <point x="28" y="520" type="line" smooth="yes"/>
      <point x="28" y="268" type="line" smooth="yes"/>
      <point x="367" y="268" type="line" smooth="yes"/>
      <point x="279" y="334" type="line" smooth="yes"/>
    </contour>
  </outline>
</glyph>
<glyph name="three.dnom" format="2">
  <advance width="361"/>
  <outline>
    <contour>
      <point x="172" y="-20" type="curve" smooth="yes"/>
      <point x="287" y="-20"/>
      <point x="341" y="23"/>
      <point x="341" y="93" type="curve" smooth="yes"/>
      <point x="341" y="137"/>
      <point x="306" y="170"/>
      <point x="232" y="180" type="curve"/>
      <point x="232" y="177" type="line"/>
      <point x="301" y="188"/>
      <point x="333" y="221"/>
      <point x="333" y="269" type="curve" smooth="yes"/>
      <point x="333" y="332"/>
      <point x="280" y="372"/>
      <point x="168" y="372" type="curve" smooth="yes"/>
      <point x="118" y="372"/>
      <point x="72" y="368"/>
      <point x="28" y="358" type="curve"/>
      <point x="28" y="234" type="line"/>
      <point x="58" y="244"/>
      <point x="89" y="248"/>
      <point x="122" y="248" type="curve" smooth="yes"/>
      <point x="147" y="248"/>
      <point x="165" y="245"/>
      <point x="165" y="232" type="curve" smooth="yes"/>
      <point x="165" y="222"/>
      <point x="141" y="216"/>
      <point x="98" y="216" type="curve" smooth="yes"/>
      <point x="77" y="216" type="line"/>
      <point x="77" y="136" type="line"/>
      <point x="104" y="136" type="line" smooth="yes"/>
      <point x="145" y="136"/>
      <point x="173" y="131"/>
      <point x="173" y="120" type="curve" smooth="yes"/>
      <point x="173" y="108"/>
      <point x="153" y="104"/>
      <point x="122" y="104" type="curve" smooth="yes"/>
      <point x="86" y="104"/>
      <point x="51" y="108"/>
      <point x="20" y="118" type="curve"/>
      <point x="20" y="-6" type="line"/>
      <point x="70" y="-17"/>
      <point x="118" y="-20"/>
    </contour>
  </outline>
</glyph>
<glyph name="three.lc" format="2">
  <advance width="600"/>
  <outline>
    <contour>
      <point x="274" y="-149" type="curve" smooth="yes"/>
      <point x="460" y="-149"/>
      <point x="574" y="-73"/>
      <point x="574" y="41" type="curve" smooth="yes"/>
      <point x="574" y="138"/>
      <point x="501" y="193"/>
      <point x="391" y="207" type="curve"/>
      <point x="395" y="188" type="line"/>
      <point x="498" y="199"/>
      <point x="566" y="256"/>
      <point x="566" y="352" type="curve" smooth="yes"/>
      <point x="566" y="468"/>
      <point x="453" y="541"/>
      <point x="289" y="541" type="curve" smooth="yes"/>
      <point x="198" y="541"/>
      <point x="116" y="530"/>
      <point x="35" y="504" type="curve"/>
      <point x="35" y="286" type="line"/>
      <point x="88" y="310"/>
      <point x="157" y="325"/>
      <point x="223" y="325" type="curve" smooth="yes"/>
      <point x="259" y="325"/>
      <point x="282" y="318"/>
      <point x="282" y="300" type="curve" smooth="yes"/>
      <point x="282" y="283"/>
      <point x="258" y="275"/>
      <point x="221" y="275" type="curve" smooth="yes"/>
      <point x="128" y="275" type="line"/>
      <point x="128" y="123" type="line"/>
      <point x="234" y="123" type="line" smooth="yes"/>
      <point x="268" y="123"/>
      <point x="290" y="114"/>
      <point x="290" y="96" type="curve" smooth="yes"/>
      <point x="290" y="77"/>
      <point x="262" y="69"/>
      <point x="218" y="69" type="curve" smooth="yes"/>
      <point x="149" y="69"/>
      <point x="79" y="88"/>
      <point x="26" y="114" type="curve"/>
      <point x="26" y="-110" type="line"/>
      <point x="108" y="-137"/>
      <point x="188" y="-149"/>
    </contour>
  </outline>
</glyph>
<glyph name="two.dnom" format="2">
  <advance width="353"/>
  <outline>
    <contour>
      <point x="20" y="0" type="line"/>
      <point x="330" y="0" type="line"/>
      <point x="330" y="132" type="line"/>
      <point x="93" y="132" type="line"/>
      <point x="93" y="108" type="line"/>
      <point x="269" y="143"/>
      <point x="333" y="175"/>
      <point x="333" y="258" type="curve" smooth="yes"/>
      <point x="333" y="316"/>
      <point x="277" y="372"/>
      <point x="159" y="372" type="curve" smooth="yes"/>
      <point x="112" y="372"/>
      <point x="69" y="366"/>
      <point x="25" y="354" type="curve"/>
      <point x="25" y="222" type="line"/>
      <point x="50" y="232"/>
      <point x="84" y="240"/>
      <point x="114" y="240" type="curve" smooth="yes"/>
      <point x="146" y="240"/>
      <point x="161" y="233"/>
      <point x="161" y="219" type="curve" smooth="yes"/>
      <point x="161" y="197"/>
      <point x="129" y="182"/>
      <point x="20" y="160" type="curve"/>
    </contour>
  </outline>
</glyph>
<glyph name="two.lc" format="2">
  <advance width="541"/>
  <outline>
    <contour>
      <point x="28" y="0" type="line"/>
      <point x="506" y="0" type="line"/>
      <point x="506" y="182" type="line"/>
      <point x="148" y="182" type="line"/>
      <point x="148" y="164" type="line"/>
      <point x="411" y="184"/>
      <point x="513" y="285"/>
      <point x="513" y="380" type="curve" smooth="yes"/>
      <point x="513" y="482"/>
      <point x="419" y="540"/>
      <point x="282" y="540" type="curve" smooth="yes"/>
      <point x="194" y="540"/>
      <point x="104" y="528"/>
      <point x="28" y="508" type="curve"/>
      <point x="28" y="300" type="line"/>
      <point x="80" y="321"/>
      <point x="137" y="334"/>
      <point x="185" y="334" type="curve" smooth="yes"/>
      <point x="221" y="334"/>
      <point x="233" y="319"/>
      <point x="233" y="298" type="curve" smooth="yes"/>
      <point x="233" y="266"/>
      <point x="197" y="235"/>
      <point x="28" y="198" type="curve"/>
    </contour>
  </outline>
</glyph>
<glyph name="zero.dnom" format="2">
  <advance width="442"/>
  <outline>
    <contour>
      <point x="221" y="-16" type="curve" smooth="yes"/>
      <point x="354" y="-16"/>
      <point x="422" y="60"/>
      <point x="422" y="175" type="curve" smooth="yes"/>
      <point x="422" y="291"/>
      <point x="354" y="368"/>
      <point x="221" y="368" type="curve" smooth="yes"/>
      <point x="88" y="368"/>
      <point x="20" y="290"/>
      <point x="20" y="174" type="curve" smooth="yes"/>
      <point x="20" y="60"/>
      <point x="88" y="-16"/>
    </contour>
    <contour>
      <point x="221" y="122" type="curve" smooth="yes"/>
      <point x="202" y="122"/>
      <point x="192" y="137"/>
      <point x="192" y="177" type="curve" smooth="yes"/>
      <point x="192" y="215"/>
      <point x="202" y="230"/>
      <point x="221" y="230" type="curve" smooth="yes"/>
      <point x="240" y="230"/>
      <point x="250" y="215"/>
      <point x="250" y="176" type="curve" smooth="yes"/>
      <point x="250" y="137"/>
      <point x="240" y="122"/>
    </contour>
  </outline>
</glyph>
<glyph name="zero.lc" format="2">
  <advance width="646"/>
  <outline>
    <contour>
      <point x="323" y="-24" type="curve" smooth="yes"/>
      <point x="519" y="-24"/>
      <point x="622" y="74"/>
      <point x="622" y="263" type="curve" smooth="yes"/>
      <point x="622" y="451"/>
      <point x="519" y="548"/>
      <point x="323" y="548" type="curve" smooth="yes"/>
      <point x="127" y="548"/>
      <point x="24" y="450"/>
      <point x="24" y="261" type="curve" smooth="yes"/>
      <point x="24" y="73"/>
      <point x="127" y="-24"/>
    </contour>
    <contour>
      <point x="323" y="182" type="curve" smooth="yes"/>
      <point x="289" y="182"/>
      <point x="280" y="208"/>
      <point x="280" y="261" type="curve" smooth="yes"/>
      <point x="280" y="315"/>
      <point x="289" y="342"/>
      <point x="323" y="342" type="curve" smooth="yes"/>
      <point x="357" y="342"/>
      <point x="366" y="315"/>
      <point x="366" y="260" type="curve" smooth="yes"/>
      <point x="366" y="210"/>
      <point x="357" y="182"/>
    </contour>
  </outline>
</glyph>
<glyph name="zero.lc_salt_slash" format="2">
  <advance width="646"/>
  <outline>
    <contour>
      <point x="323" y="-24" type="curve" smooth="yes"/>
      <point x="519" y="-24"/>
      <point x="622" y="74"/>
      <point x="622" y="263" type="curve" smooth="yes"/>
      <point x="622" y="451"/>
      <point x="519" y="548"/>
      <point x="323" y="548" type="curve" smooth="yes"/>
      <point x="127" y="548"/>
      <point x="24" y="450"/>
      <point x="24" y="261" type="curve" smooth="yes"/>
      <point x="24" y="73"/>
      <point x="127" y="-24"/>
    </contour>
    <contour>
      <point x="280" y="261" type="curve" smooth="yes"/>
      <point x="280" y="315"/>
      <point x="289" y="342"/>
      <point x="323" y="342" type="curve" smooth="yes"/>
      <point x="329" y="342"/>
      <point x="334" y="341"/>
      <point x="339" y="339" type="curve"/>
      <point x="284" y="214" type="line"/>
      <point x="281" y="226"/>
      <point x="280" y="242"/>
    </contour>
    <contour>
      <point x="323" y="182" type="curve" smooth="yes"/>
      <point x="318" y="182"/>
      <point x="314" y="182"/>
      <point x="311" y="183" type="curve"/>
      <point x="363" y="303" type="line"/>
      <point x="365" y="291"/>
      <point x="366" y="277"/>
      <point x="366" y="260" type="curve" smooth="yes"/>
      <point x="366" y="210"/>
      <point x="357" y="182"/>
    </contour>
  </outline>
</glyph>
<glyph name="zero.salt_slash" format="2">
  <advance width="742"/>
  <outline>
    <contour>
      <point x="369" y="-19" type="curve" smooth="yes"/>
      <point x="600" y="-19"/>
      <point x="710" y="115"/>
      <point x="710" y="330" type="curve" smooth="yes"/>
      <point x="710" y="544"/>
      <point x="600" y="678"/>
      <point x="369" y="678" type="curve" smooth="yes"/>
      <point x="139" y="678"/>
      <point x="28" y="544"/>
      <point x="28" y="330" type="curve" smooth="yes"/>
      <point x="28" y="116"/>
      <point x="138" y="-19"/>
    </contour>
    <contour>
      <point x="320" y="330" type="curve" smooth="yes"/>
      <point x="320" y="411"/>
      <point x="334" y="450"/>
      <point x="369" y="450" type="curve" smooth="yes"/>
      <point x="381" y="450"/>
      <point x="391" y="446"/>
      <point x="398" y="436" type="curve"/>
      <point x="324" y="268" type="line"/>
      <point x="321" y="285"/>
      <point x="320" y="305"/>
    </contour>
    <contour>
      <point x="369" y="209" type="curve" smooth="yes"/>
      <point x="358" y="209"/>
      <point x="350" y="213"/>
      <point x="343" y="220" type="curve"/>
      <point x="415" y="384" type="line"/>
      <point x="417" y="369"/>
      <point x="418" y="351"/>
      <point x="418" y="330" type="curve" smooth="yes"/>
      <point x="418" y="248"/>
      <point x="404" y="209"/>
    </contour>
  </outline>
</glyph>
<glyph name="zero.sc_salt_slash" format="2">
  <advance width="628"/>
  <outline>
    <contour>
      <point x="314" y="-18" type="curve" smooth="yes"/>
      <point x="501" y="-18"/>
      <point x="604" y="88"/>
      <point x="604" y="267" type="curve" smooth="yes"/>
      <point x="604" y="446"/>
      <point x="494" y="553"/>
      <point x="314" y="553" type="curve" smooth="yes"/>
      <point x="134" y="553"/>
      <point x="24" y="446"/>
      <point x="24" y="267" type="curve" smooth="yes"/>
      <point x="24" y="88"/>
      <point x="127" y="-18"/>
    </contour>
    <contour>
      <point x="272" y="267" type="curve" smooth="yes"/>
      <point x="272" y="332"/>
      <point x="286" y="357"/>
      <point x="314" y="357" type="curve" smooth="yes"/>
      <point x="321" y="357"/>
      <point x="327" y="355"/>
      <point x="332" y="352" type="curve"/>
      <point x="275" y="222" type="line"/>
      <point x="273" y="234"/>
      <point x="272" y="249"/>
    </contour>
    <contour>
      <point x="314" y="177" type="curve" smooth="yes"/>
      <point x="308" y="177"/>
      <point x="302" y="178"/>
      <point x="298" y="181" type="curve"/>
      <point x="353" y="308" type="line"/>
      <point x="355" y="297"/>
      <point x="356" y="283"/>
      <point x="356" y="267" type="curve" smooth="yes"/>
      <point x="356" y="204"/>
      <point x="342" y="177"/>
    </contour>
  </outline>
</glyph>
<glyph name="zero.tab_lc_salt_slash" format="2">
  <advance width="650"/>
  <outline>
    <contour>
      <point x="325" y="-18" type="curve" smooth="yes"/>
      <point x="517" y="-18"/>
      <point x="623" y="82"/>
      <point x="623" y="267" type="curve" smooth="yes"/>
      <point x="623" y="453"/>
      <point x="517" y="553"/>
      <point x="325" y="553" type="curve" smooth="yes"/>
      <point x="133" y="553"/>
      <point x="27" y="453"/>
      <point x="27" y="267" type="curve" smooth="yes"/>
      <point x="27" y="81"/>
      <point x="133" y="-18"/>
    </contour>
    <contour>
      <point x="283" y="267" type="curve" smooth="yes"/>
      <point x="283" y="329"/>
      <point x="297" y="353"/>
      <point x="325" y="353" type="curve" smooth="yes"/>
      <point x="331" y="353"/>
      <point x="337" y="352"/>
      <point x="341" y="349" type="curve"/>
      <point x="286" y="224" type="line"/>
      <point x="284" y="236"/>
      <point x="283" y="250"/>
    </contour>
    <contour>
      <point x="325" y="181" type="curve" smooth="yes"/>
      <point x="319" y="181"/>
      <point x="314" y="182"/>
      <point x="309" y="185" type="curve"/>
      <point x="364" y="310" type="line"/>
      <point x="366" y="298"/>
      <point x="367" y="284"/>
      <point x="367" y="267" type="curve" smooth="yes"/>
      <point x="367" y="207"/>
      <point x="353" y="181"/>
    </contour>
  </outline>
</glyph>
<glyph name="zero.tab_salt_slash" format="2">
  <advance width="650"/>
  <outline>
    <contour>
      <point x="325" y="-12" type="curve" smooth="yes"/>
      <point x="515" y="-12"/>
      <point x="621" y="126"/>
      <point x="621" y="333" type="curve" smooth="yes"/>
      <point x="621" y="540"/>
      <point x="515" y="678"/>
      <point x="325" y="678" type="curve" smooth="yes"/>
      <point x="135" y="678"/>
      <point x="29" y="539"/>
      <point x="29" y="331" type="curve" smooth="yes"/>
      <point x="29" y="123"/>
      <point x="135" y="-12"/>
    </contour>
    <contour>
      <point x="281" y="333" type="curve" smooth="yes"/>
      <point x="281" y="420"/>
      <point x="293" y="450"/>
      <point x="325" y="450" type="curve" smooth="yes"/>
      <point x="336" y="450"/>
      <point x="345" y="446"/>
      <point x="352" y="438" type="curve"/>
      <point x="283" y="281" type="line"/>
      <point x="282" y="296"/>
      <point x="281" y="313"/>
    </contour>
    <contour>
      <point x="325" y="216" type="curve" smooth="yes"/>
      <point x="314" y="216"/>
      <point x="306" y="219"/>
      <point x="299" y="227" type="curve"/>
      <point x="367" y="382" type="line"/>
      <point x="368" y="368"/>
      <point x="369" y="352"/>
      <point x="369" y="333" type="curve" smooth="yes"/>
      <point x="369" y="246"/>
      <point x="357" y="216"/>
    </contour>
  </outline>
</glyph>
